<svg width="233pt" height="40pt" viewBox="-1 -1 235 42" xmlns="http://www.w3.org/2000/svg"><g id="fontsvg1671842242944" stroke-linecap="round" fill-rule="evenodd" stroke="#aaaa67" stroke-width="0.5mm" fill="#bdbcc3"><path d="M 26.3 14.6 A 7.721 7.721 0 0 0 27.6 12.339 Q 28.127 10.901 28.1 9.2 A 11.566 11.566 0 0 0 28.014 7.934 Q 27.278 2.032 20.3 0.4 A 123.957 123.957 0 0 0 20.086 0.373 Q 17.872 0.096 16.637 0.025 A 13.057 13.057 0 0 0 15.9 0 A 21.15 21.15 0 0 0 12.048 0.333 A 13.12 13.12 0 0 0 2.55 6.95 Q 0 11.4 0 16.3 A 23.008 23.008 0 0 0 0.019 17.209 Q 0.082 18.799 0.352 21.082 A 103.898 103.898 0 0 0 0.625 23.2 Q 1.035 26.153 1.478 28.374 A 45.321 45.321 0 0 0 1.95 30.5 A 32.566 32.566 0 0 0 2.156 31.282 Q 2.985 34.28 4.05 35.7 A 7.66 7.66 0 0 0 4.773 36.553 Q 6.339 38.154 9.05 39.15 A 8.401 8.401 0 0 0 9.148 39.184 Q 10.292 39.572 11.978 39.786 A 29.607 29.607 0 0 0 13.7 39.95 A 9.047 9.047 0 0 0 13.821 39.96 Q 14.528 40.015 15.159 39.951 A 4.727 4.727 0 0 0 18.65 38 A 6.077 6.077 0 0 0 19.616 36.004 A 8.141 8.141 0 0 0 19.9 34.15 Q 20.05 31.5 17.5 29.85 A 132.524 132.524 0 0 1 17.241 29.357 Q 16.69 28.303 16.517 27.916 A 1.995 1.995 0 0 1 16.45 27.75 Q 16.253 27.061 16.099 26.114 A 26.722 26.722 0 0 1 15.95 25.05 Q 16.5 25.15 17.05 25.15 Q 20.247 25.15 21.913 22.748 A 8.317 8.317 0 0 0 22.95 20.6 A 3.401 3.401 0 0 0 23.233 19.945 A 3.819 3.819 0 0 0 23.4 18.8 Q 23.4 17.7 22.9 16.7 Q 24.75 16.5 26.3 14.6 Z M 202.905 23.975 A 4.326 4.326 0 0 0 201.8 22.3 Q 198.125 18.8 197.627 18.325 A 13.026 13.026 0 0 1 197.55 18.25 Q 201.1 14.35 201.1 10.8 Q 201.1 7.346 199.287 4.864 A 10.847 10.847 0 0 0 196.25 2.1 A 5.003 5.003 0 0 0 195.409 1.673 Q 194.477 1.292 192.994 0.977 A 33.058 33.058 0 0 0 191.35 0.675 Q 187.75 0.1 184.3 0.15 A 26.363 26.363 0 0 0 183.245 0.179 Q 177.531 0.451 175.65 3.25 A 4.785 4.785 0 0 0 175.309 3.846 Q 173.85 6.847 173.85 15.4 Q 173.85 20.178 174.086 23.609 A 54.631 54.631 0 0 0 174.35 26.45 Q 174.85 31.05 180.6 31.75 Q 181.535 31.884 184.255 31.859 A 117.126 117.126 0 0 0 184.95 31.85 A 8.359 8.359 0 0 0 186.328 31.715 A 6.085 6.085 0 0 0 189.3 30.3 A 4.018 4.018 0 0 0 189.639 30.512 Q 190.312 30.889 191.383 31.203 A 18.222 18.222 0 0 0 192.55 31.5 Q 194.35 31.95 195.65 32 A 8.579 8.579 0 0 0 195.922 32.005 A 7.081 7.081 0 0 0 201.05 29.9 A 8.09 8.09 0 0 0 202.017 28.806 A 5.593 5.593 0 0 0 203.15 25.45 A 4.371 4.371 0 0 0 202.905 23.975 Z M 132.6 20.95 L 135.45 22.7 Q 137 23.65 137.45 25.35 Q 137.696 26.235 137.748 28.426 A 43.417 43.417 0 0 1 137.75 28.5 A 7.514 7.514 0 0 1 137.269 31.238 A 6.752 6.752 0 0 1 135.05 34.15 Q 134.275 34.753 132.535 34.837 A 12.203 12.203 0 0 1 131.95 34.85 Q 129.45 34.85 126.225 34.025 Q 123.036 33.209 121.24 32.174 A 9.609 9.609 0 0 1 121.2 32.15 A 28.592 28.592 0 0 1 117.296 29.462 Q 115.296 27.805 113.98 25.961 A 14.037 14.037 0 0 1 112.5 23.35 Q 110.35 18.35 110.25 13.75 Q 110.15 8.4 113.15 4.9 A 12.358 12.358 0 0 1 120.747 0.617 A 18.368 18.368 0 0 1 123.95 0.35 Q 129.4 0.35 134.05 2.7 Q 135.3 3.35 136.475 4.75 A 6.65 6.65 0 0 1 137.094 5.61 Q 137.65 6.541 137.65 7.4 Q 137.744 8.061 137.839 15.535 A 1407.46 1407.46 0 0 1 137.85 16.45 A 5.157 5.157 0 0 1 137.562 18.198 A 4.607 4.607 0 0 1 136.8 19.55 A 4.026 4.026 0 0 1 133.877 21.037 A 5.312 5.312 0 0 1 133.5 21.05 Q 133.05 21.05 132.6 20.95 Z M 169.7 9.8 A 414.845 414.845 0 0 0 169.466 12.633 Q 169.1 17.282 169.1 19 Q 169.1 19.6 169.15 19.8 Q 170.05 22.6 170.05 25.15 Q 170.05 27.539 169.281 29.103 A 4.94 4.94 0 0 1 168 30.75 Q 166.5 32 162.3 32 A 18.738 18.738 0 0 1 159.698 31.833 Q 156.733 31.415 155.119 29.961 A 5.592 5.592 0 0 1 155 29.85 Q 153.069 31.689 149.701 31.837 A 13.683 13.683 0 0 1 149.1 31.85 Q 145.702 31.85 143.557 30.497 A 6.793 6.793 0 0 1 142 29.15 A 3.104 3.104 0 0 1 141.545 28.291 Q 141.1 27.065 141.1 24.85 A 40.154 40.154 0 0 1 141.537 18.761 Q 142.041 15.475 143.129 12.73 A 22.532 22.532 0 0 1 143.85 11.1 Q 147.058 5.182 151.694 2.529 A 15.953 15.953 0 0 1 152.7 2 A 16.242 16.242 0 0 1 156.32 0.752 Q 158.069 0.357 160.119 0.221 A 33.792 33.792 0 0 1 162.35 0.15 A 21.127 21.127 0 0 1 164.724 0.273 Q 167.15 0.549 168.543 1.441 A 4.368 4.368 0 0 1 169.4 2.15 A 5.398 5.398 0 0 1 170.604 4.274 Q 170.906 5.247 170.95 6.45 Q 170.996 7.965 169.904 9.522 A 8.37 8.37 0 0 1 169.7 9.8 Z M 22.9 14.15 Q 23.95 13.9 24.7 12.8 Q 25.652 11.419 25.652 9.403 A 8.738 8.738 0 0 0 25.65 9.2 Q 25.6 4.3 19.45 2.7 A 27.508 27.508 0 0 0 16.787 2.467 A 23.932 23.932 0 0 0 15.9 2.45 A 17.273 17.273 0 0 0 11.59 2.953 A 10.797 10.797 0 0 0 4.65 8.15 A 18.237 18.237 0 0 0 3.102 11.658 Q 2.364 14.004 2.45 16.3 Q 2.55 20.05 3.3 24.55 A 63.362 63.362 0 0 0 3.984 28.243 Q 4.363 29.984 4.81 31.458 A 27.202 27.202 0 0 0 5.65 33.85 Q 6.605 35.47 8.838 36.469 A 12.325 12.325 0 0 0 9.8 36.85 A 14.484 14.484 0 0 0 12.442 37.453 A 12.521 12.521 0 0 0 13.7 37.55 Q 14.385 37.57 14.955 37.436 A 3.176 3.176 0 0 0 16.45 36.65 A 3.167 3.167 0 0 0 17.423 34.643 A 4.384 4.384 0 0 0 17.45 34.15 A 1.389 1.389 0 0 0 17.452 34.081 Q 17.452 33.104 16.1 31.8 Q 15.35 30.95 14.15 28.45 A 46.876 46.876 0 0 1 13.757 27.125 Q 13.244 25.289 13.204 24.397 A 3.227 3.227 0 0 1 13.2 24.25 Q 13.2 22.39 14.542 22.26 A 2.168 2.168 0 0 1 14.75 22.25 A 2.025 2.025 0 0 1 15.003 22.268 Q 15.277 22.303 15.657 22.406 A 9.348 9.348 0 0 1 15.9 22.475 A 22.364 22.364 0 0 0 16.16 22.552 Q 16.65 22.692 16.785 22.7 A 0.259 0.259 0 0 0 16.8 22.7 A 4.826 4.826 0 0 0 18.295 22.485 Q 19.772 22.005 20.409 20.455 A 5.269 5.269 0 0 0 20.6 19.9 Q 20.8 19.25 20.8 18.55 A 4.729 4.729 0 0 0 20.608 17.181 A 4.033 4.033 0 0 0 20.1 16.1 A 0.82 0.82 0 0 1 19.927 15.929 Q 19.615 15.5 20.15 14.8 A 0.914 0.914 0 0 1 20.592 14.456 Q 20.863 14.35 21.25 14.35 Q 22.328 14.264 22.774 14.178 A 2.421 2.421 0 0 0 22.9 14.15 Z M 219.05 10.6 Q 223.45 13.85 225.05 15.55 Q 228.1 18.85 228.1 22.3 A 12.91 12.91 0 0 1 228.034 23.659 Q 227.887 25.043 227.411 25.839 A 2.364 2.364 0 0 1 226.9 26.45 A 3.504 3.504 0 0 1 225.883 27.03 Q 224.293 27.65 221.208 27.65 A 19.601 19.601 0 0 1 221.2 27.65 Q 217.416 27.65 215.297 26.876 A 6.969 6.969 0 0 1 214.75 26.65 Q 213.603 26.113 212.405 24.881 A 15.838 15.838 0 0 1 211.45 23.8 A 10.706 10.706 0 0 1 210.733 22.785 Q 210.052 21.677 209.963 20.768 A 2.758 2.758 0 0 1 209.95 20.5 A 2.18 2.18 0 0 1 210.879 18.657 Q 211.279 18.361 211.85 18.15 A 1.926 1.926 0 0 1 212.3 17.989 A 1.633 1.633 0 0 1 212.65 17.95 Q 213.536 17.95 214.941 18.891 A 14.15 14.15 0 0 1 215.65 19.4 Q 217.3 20.6 218.7 20.8 A 6.533 6.533 0 0 0 218.95 20.826 Q 220.35 20.941 220.35 20.25 Q 220.35 19.4 218.45 18.85 Q 215.9 18.15 213.15 15.15 A 9.606 9.606 0 0 1 211.962 13.521 Q 211.315 12.385 211.154 11.226 A 5.61 5.61 0 0 1 211.1 10.45 A 8.055 8.055 0 0 1 211.242 8.883 Q 211.419 7.99 211.818 7.312 A 3.832 3.832 0 0 1 212.8 6.2 A 5.819 5.819 0 0 1 214.43 5.304 Q 216.089 4.682 218.669 4.541 A 29.153 29.153 0 0 1 220.25 4.5 A 25.178 25.178 0 0 1 222.921 4.649 A 31.433 31.433 0 0 1 224.75 4.9 A 10.273 10.273 0 0 1 225.645 5.159 Q 226.507 5.455 226.958 5.834 A 1.412 1.412 0 0 1 227.375 6.375 Q 227.662 7.083 227.729 8.098 A 9.855 9.855 0 0 1 227.75 8.75 A 9.237 9.237 0 0 1 227.71 9.646 Q 227.625 10.517 227.355 10.98 A 0.948 0.948 0 0 1 226.6 11.5 A 1.406 1.406 0 0 1 226.464 11.509 Q 225.643 11.525 223.79 10.749 A 26.104 26.104 0 0 1 223.5 10.625 A 47.613 47.613 0 0 0 222.718 10.294 Q 221.198 9.668 220.773 9.651 A 0.575 0.575 0 0 0 220.75 9.65 A 7.228 7.228 0 0 0 220.2 9.685 Q 219.33 9.777 219.091 10.086 A 0.421 0.421 0 0 0 219 10.35 Q 219 10.45 219.05 10.6 Z M 134.15 24.85 L 129.05 21.8 A 11.384 11.384 0 0 1 127.829 20.951 Q 126.563 19.929 126.224 18.875 A 2.516 2.516 0 0 1 126.1 18.1 A 2.284 2.284 0 0 1 126.156 17.572 Q 126.326 16.86 127.016 16.729 A 1.805 1.805 0 0 1 127.35 16.7 A 2.132 2.132 0 0 1 127.885 16.776 Q 128.394 16.908 129.036 17.274 A 8.624 8.624 0 0 1 129.25 17.4 A 13.64 13.64 0 0 0 130.559 17.989 Q 132.174 18.608 133.4 18.5 Q 135.023 18.375 135.295 17.003 A 3.105 3.105 0 0 0 135.35 16.4 Q 135.35 9.69 135.146 7.804 A 8.187 8.187 0 0 0 135.125 7.625 A 3.02 3.02 0 0 0 133.887 5.554 A 5.001 5.001 0 0 0 132.95 5 A 21.725 21.725 0 0 0 126.784 3.105 A 19.693 19.693 0 0 0 123.95 2.9 A 14.7 14.7 0 0 0 120.291 3.329 A 9.927 9.927 0 0 0 115.05 6.55 A 13.963 13.963 0 0 0 113.255 10.301 A 11.991 11.991 0 0 0 112.75 13.75 A 16.358 16.358 0 0 0 113.124 17.11 Q 113.636 19.546 114.85 22.35 Q 115.6 23.75 116.6 25 Q 119.05 28 122.4 29.9 A 19.164 19.164 0 0 0 131.567 32.441 Q 132.005 32.454 132.45 32.45 A 2.206 2.206 0 0 0 133.775 31.922 Q 134.072 31.678 134.339 31.323 A 4.469 4.469 0 0 0 134.375 31.275 Q 135.2 30.15 135.2 28.65 Q 135.377 26.734 134.774 25.624 A 2.674 2.674 0 0 0 134.15 24.85 Z M 229.95 14.85 Q 232.6 18.65 232.6 22.55 A 12.263 12.263 0 0 1 232.22 25.532 A 14.51 14.51 0 0 1 231.925 26.55 Q 231.25 28.6 230.25 29.6 A 6.14 6.14 0 0 1 228.234 30.917 Q 225.685 32 221.15 32 A 24.375 24.375 0 0 1 216.234 31.538 Q 213.327 30.938 211.137 29.563 A 12.324 12.324 0 0 1 208 26.75 A 13.435 13.435 0 0 1 206.539 24.553 Q 205.5 22.566 205.5 20.6 Q 205.5 17.65 207.95 15.55 A 11.267 11.267 0 0 1 206.881 12.701 A 9.696 9.696 0 0 1 206.65 10.6 A 9.802 9.802 0 0 1 208.629 4.697 A 12.031 12.031 0 0 1 208.7 4.6 A 10.216 10.216 0 0 1 213.402 1.232 Q 216.191 0.2 220.069 0.2 A 29.424 29.424 0 0 1 220.25 0.2 A 27.009 27.009 0 0 1 224.505 0.522 Q 232.747 1.878 232.3 8.95 A 14.891 14.891 0 0 1 232.017 11.025 Q 231.487 13.493 230.115 14.711 A 4.467 4.467 0 0 1 229.95 14.85 Z M 55.629 3.527 A 4.758 4.758 0 0 0 54.9 2.6 A 7.685 7.685 0 0 0 51.989 0.886 A 9.461 9.461 0 0 0 49.2 0.45 Q 47.5 0.45 45.9 1.25 A 8.051 8.051 0 0 0 44.838 0.723 A 6.194 6.194 0 0 0 42.5 0.25 A 7.399 7.399 0 0 0 41.784 0.286 Q 40.359 0.425 38.65 1.1 A 6.827 6.827 0 0 0 36.552 2.321 A 8.297 8.297 0 0 0 35 4.1 A 0.158 0.158 0 0 0 34.994 4.106 Q 34.829 4.291 33.7 6.45 A 30.179 30.179 0 0 0 32.109 10.235 A 23.566 23.566 0 0 0 30.8 17.85 A 19.463 19.463 0 0 0 31.218 21.991 A 13.582 13.582 0 0 0 33.65 27.4 A 11.222 11.222 0 0 0 39.945 31.507 Q 41.862 32.002 44.152 32.002 A 21.491 21.491 0 0 0 44.45 32 Q 54.776 31.85 57.404 25.243 A 14.052 14.052 0 0 0 58.3 20.15 L 58.3 18.3 Q 58.3 14.05 57.812 10.738 A 28.614 28.614 0 0 0 57.05 7.1 A 22.969 22.969 0 0 0 56.761 6.123 Q 56.246 4.519 55.629 3.527 Z M 47.858 5.088 A 0.895 0.895 0 0 0 47.4 5.6 Q 47.3 6.85 47.65 9.45 Q 48.3 14.6 47.55 16.95 A 3.318 3.318 0 0 1 47.437 17.373 Q 47.048 18.513 45.895 18.829 A 3.766 3.766 0 0 1 44.9 18.95 Q 43.998 18.95 43.468 18.696 A 1.29 1.29 0 0 1 42.9 18.2 A 1.318 1.318 0 0 1 42.829 18.024 Q 42.657 17.503 42.614 16.317 A 24.054 24.054 0 0 1 42.6 15.45 Q 42.6 13.8 43.65 10.7 A 49.791 49.791 0 0 0 43.797 10.259 Q 44.458 8.245 44.635 7.084 A 4.966 4.966 0 0 0 44.7 6.35 Q 44.7 5.069 43.289 4.814 A 4.456 4.456 0 0 0 42.5 4.75 A 3.114 3.114 0 0 0 42.365 4.753 Q 41.542 4.789 40.25 5.25 Q 39.35 5.6 38.7 6.55 A 5.907 5.907 0 0 0 38.672 6.6 Q 38.493 6.92 37.979 7.911 A 282.306 282.306 0 0 0 37.7 8.45 A 33.058 33.058 0 0 0 37.224 9.51 Q 36.341 11.571 35.863 13.497 A 18.081 18.081 0 0 0 35.3 17.85 A 15.047 15.047 0 0 0 35.675 21.362 Q 36.733 25.757 40.774 27.005 A 12.462 12.462 0 0 0 44.45 27.5 A 20.099 20.099 0 0 0 46.029 27.441 Q 53.709 26.835 53.8 20.05 Q 54 9 51.6 5.6 Q 51.17 5.014 49.917 4.886 A 7.569 7.569 0 0 0 49.15 4.85 Q 48.306 4.85 47.858 5.088 Z M 195.65 29.55 Q 197.25 29.7 198.925 28.225 A 6.996 6.996 0 0 0 199.735 27.394 Q 200.127 26.911 200.341 26.426 A 2.886 2.886 0 0 0 200.6 25.25 A 1.598 1.598 0 0 0 200.49 24.649 A 1.473 1.473 0 0 0 200.1 24.1 Q 195.759 19.759 195.136 19.159 A 7.252 7.252 0 0 0 195.075 19.1 A 1.66 1.66 0 0 1 194.842 18.832 Q 194.713 18.644 194.671 18.446 A 0.936 0.936 0 0 1 194.65 18.25 A 0.944 0.944 0 0 1 194.798 17.75 Q 194.908 17.571 195.1 17.4 Q 195.943 16.595 196.787 15.291 A 20.096 20.096 0 0 0 197.3 14.45 A 14.278 14.278 0 0 0 197.938 13.322 Q 198.687 11.831 198.65 10.8 Q 198.55 6.6 194.9 4.1 Q 192.396 2.802 185.418 2.622 A 85.037 85.037 0 0 0 184.3 2.6 A 24.457 24.457 0 0 0 183.83 2.596 Q 180.231 2.596 178.581 3.711 A 3.221 3.221 0 0 0 177.7 4.575 A 4.799 4.799 0 0 0 177.137 5.858 Q 176.453 8.126 176.328 13.06 A 92.57 92.57 0 0 0 176.3 15.4 A 169.661 169.661 0 0 0 176.344 19.398 Q 176.441 23.485 176.75 26.2 A 3.059 3.059 0 0 0 178.551 28.716 Q 179.161 29.022 179.975 29.199 A 9.648 9.648 0 0 0 180.9 29.35 A 6.339 6.339 0 0 0 181.247 29.379 Q 182.275 29.442 184.9 29.4 A 6.246 6.246 0 0 0 186.126 29.26 Q 187.447 28.964 188.15 28.05 A 2.02 2.02 0 0 1 188.397 27.786 Q 189 27.254 189.693 27.723 A 1.966 1.966 0 0 1 189.8 27.8 A 6.574 6.574 0 0 0 191.326 28.639 Q 192.855 29.252 195.134 29.5 A 24.853 24.853 0 0 0 195.65 29.55 Z M 61.25 15.35 L 61.15 11.75 A 26.787 26.787 0 0 1 61.143 11.155 Q 61.143 9.154 61.45 7.378 A 16.691 16.691 0 0 1 62.45 3.85 A 5.488 5.488 0 0 1 66.043 0.595 Q 67.547 0.1 69.6 0.1 Q 71.8 0.1 73.9 0.6 Q 75.048 0.907 75.874 1.33 A 6.111 6.111 0 0 1 76.35 1.6 A 5.481 5.481 0 0 1 77.856 2.889 A 4.948 4.948 0 0 1 78.75 4.65 A 8.95 8.95 0 0 1 79.2 7.489 A 10.092 10.092 0 0 1 79.2 7.5 A 9.887 9.887 0 0 1 78.932 9.715 Q 78.588 11.213 77.8 12.9 Q 77.55 13.4 77.1 14.65 L 77.1 14.7 A 5.935 5.935 0 0 1 80.968 17.303 A 9.188 9.188 0 0 1 81.75 18.7 Q 82.9 21.15 82.9 23.75 Q 82.9 25.65 82.2 27.5 Q 80.686 31.896 73.063 31.998 A 27.317 27.317 0 0 1 72.7 32 Q 70.05 32 67.65 31.55 Q 65.234 31.116 63.82 30.092 A 4.614 4.614 0 0 1 62.15 27.95 A 15.618 15.618 0 0 1 61.148 22.423 A 16.34 16.34 0 0 1 61.15 22.15 Q 61.197 16.206 61.244 15.425 A 2.001 2.001 0 0 1 61.25 15.35 Z M 85.75 15.35 L 85.65 11.75 A 26.787 26.787 0 0 1 85.643 11.155 Q 85.643 9.154 85.95 7.378 A 16.691 16.691 0 0 1 86.95 3.85 A 5.488 5.488 0 0 1 90.543 0.595 Q 92.047 0.1 94.1 0.1 Q 96.3 0.1 98.4 0.6 Q 99.548 0.907 100.374 1.33 A 6.111 6.111 0 0 1 100.85 1.6 A 5.481 5.481 0 0 1 102.356 2.889 A 4.948 4.948 0 0 1 103.25 4.65 A 8.95 8.95 0 0 1 103.7 7.489 A 10.092 10.092 0 0 1 103.7 7.5 A 9.887 9.887 0 0 1 103.432 9.715 Q 103.088 11.213 102.3 12.9 Q 102.05 13.4 101.6 14.65 L 101.6 14.7 A 5.935 5.935 0 0 1 105.468 17.303 A 9.188 9.188 0 0 1 106.25 18.7 Q 107.4 21.15 107.4 23.75 Q 107.4 25.65 106.7 27.5 Q 105.186 31.896 97.563 31.998 A 27.317 27.317 0 0 1 97.2 32 Q 94.55 32 92.15 31.55 Q 89.734 31.116 88.32 30.092 A 4.614 4.614 0 0 1 86.65 27.95 A 15.618 15.618 0 0 1 85.648 22.423 A 16.34 16.34 0 0 1 85.65 22.15 Q 85.697 16.206 85.744 15.425 A 2.001 2.001 0 0 1 85.75 15.35 Z M 20.603 5.168 A 13.929 13.929 0 0 0 19.15 4.7 A 26.47 26.47 0 0 0 17.866 4.548 A 21.719 21.719 0 0 0 15.85 4.45 A 15.114 15.114 0 0 0 12.377 4.822 A 8.789 8.789 0 0 0 6.45 9.15 A 13.949 13.949 0 0 0 4.465 16.295 A 14.444 14.444 0 0 0 4.5 17.3 Q 4.947 24.382 6.197 29.194 A 27.701 27.701 0 0 0 7.5 33.1 A 1.135 1.135 0 0 0 7.549 33.198 Q 7.972 33.957 9.85 34.825 Q 10.975 35.346 11.973 35.573 A 6.648 6.648 0 0 0 13.45 35.75 A 4.311 4.311 0 0 0 13.823 35.735 Q 15.45 35.594 15.45 34.15 A 0.062 0.062 0 0 0 15.45 34.149 Q 15.446 33.971 14.416 32.882 A 45.526 45.526 0 0 0 14.1 32.55 A 9.695 9.695 0 0 1 13.836 32.247 A 8.216 8.216 0 0 1 12.15 29 A 34.958 34.958 0 0 1 11.6 26.109 A 27.496 27.496 0 0 1 11.3 22.15 Q 11.3 16.676 12.488 14.007 A 5.067 5.067 0 0 1 13.65 12.3 Q 14.636 11.374 15.533 11.001 A 3.034 3.034 0 0 1 16.7 10.75 A 3.247 3.247 0 0 1 17.075 10.773 Q 18.008 10.882 19.45 11.5 A 20.093 20.093 0 0 0 20.061 11.751 Q 21.364 12.259 22.1 12.3 Q 23.6 11.6 23.6 9.2 Q 23.6 7.8 23.15 6.9 A 3.291 3.291 0 0 0 22.822 6.511 Q 22.062 5.735 20.603 5.168 Z M 168.55 6.45 A 4.838 4.838 0 0 0 168.552 6.299 Q 168.552 4.8 167.6 3.8 Q 166.45 2.6 162.35 2.6 A 30.138 30.138 0 0 0 158.956 2.779 Q 157.282 2.969 155.882 3.362 A 13.248 13.248 0 0 0 153.75 4.15 Q 148.55 6.7 146.05 12.1 Q 144.3 15.8 143.6 21.9 A 6.978 6.978 0 0 0 143.57 22.276 Q 143.519 23.169 143.598 24.802 A 57.819 57.819 0 0 0 143.6 24.85 A 29.122 29.122 0 0 0 143.628 25.65 Q 143.686 26.833 143.835 27.362 A 1.213 1.213 0 0 0 143.95 27.65 A 0.821 0.821 0 0 0 144.191 28.108 Q 144.597 28.531 145.669 28.879 A 9.94 9.94 0 0 0 145.9 28.95 Q 147.4 29.405 148.817 29.405 A 8.767 8.767 0 0 0 149.1 29.4 A 5.875 5.875 0 0 0 152.427 28.255 A 7.329 7.329 0 0 0 152.7 28.05 Q 154.254 26.826 155.054 26.71 A 1.191 1.191 0 0 1 155.15 26.7 A 1.153 1.153 0 0 1 155.904 26.984 A 1.854 1.854 0 0 1 156.2 27.3 Q 156.4 27.7 156.65 28.05 Q 158.203 29.556 161.838 29.556 A 18.508 18.508 0 0 0 162.3 29.55 Q 166.645 29.464 167.252 26.009 A 7.001 7.001 0 0 0 167.35 24.8 A 10.547 10.547 0 0 0 167.312 23.939 Q 167.238 23.049 167.025 21.9 A 78.188 78.188 0 0 1 166.915 21.293 Q 166.7 20.085 166.7 19.8 Q 166.7 18.373 166.912 15.08 A 255.208 255.208 0 0 1 166.95 14.5 Q 167.25 9.75 167.6 8.6 Q 168.45 7.7 168.55 6.45 Z M 194.7 21.75 L 198.65 25.5 Q 198.117 27.196 195.19 27.249 A 10.569 10.569 0 0 1 195 27.25 A 9.849 9.849 0 0 1 193.288 27.107 A 8.344 8.344 0 0 1 192.4 26.9 Q 190.65 26.15 187.3 22.45 Q 186.266 22.417 185.922 22.784 A 0.655 0.655 0 0 0 185.75 23.25 A 0.155 0.155 0 0 0 185.758 23.282 Q 185.805 23.431 186.131 24.251 A 161.101 161.101 0 0 0 186.25 24.55 Q 186.722 25.731 186.748 26.242 A 1.132 1.132 0 0 1 186.75 26.3 A 0.898 0.898 0 0 1 186.197 27.15 Q 185.738 27.378 184.9 27.4 A 145.488 145.488 0 0 1 184.416 27.408 Q 181.838 27.442 181.15 27.35 Q 178.9 27.05 178.75 25.9 A 51.515 51.515 0 0 1 178.513 23.242 Q 178.33 20.462 178.304 16.669 A 187.236 187.236 0 0 1 178.3 15.4 A 104.366 104.366 0 0 1 178.337 12.503 Q 178.497 6.775 179.35 5.8 A 1.536 1.536 0 0 1 180.049 5.151 Q 181.552 4.35 185.9 4.35 Q 190.326 4.35 192.713 5.289 A 6.522 6.522 0 0 1 193.75 5.8 A 7.565 7.565 0 0 1 195.3 7.004 A 4.921 4.921 0 0 1 196.75 10.55 Q 196.75 11.5 196.3 12.25 Q 194.75 15.7 191.65 17.55 Q 192.544 19.735 194.67 21.722 A 17.208 17.208 0 0 0 194.7 21.75 Z M 127.9 23.35 L 131.7 25.45 Q 133.05 26.4 133.1 28.4 A 2.733 2.733 0 0 1 133.035 29.023 Q 132.794 30.05 131.65 30.05 Q 127.4 30.05 123.35 27.85 Q 119.05 25.5 116.75 21.3 A 29.721 29.721 0 0 1 115.668 18.377 Q 115.208 16.88 115.007 15.54 A 13.404 13.404 0 0 1 114.85 13.55 Q 114.85 10.3 116.6 7.7 A 8.01 8.01 0 0 1 120.768 5.175 Q 122.095 4.83 123.68 4.803 A 15.895 15.895 0 0 1 123.95 4.8 A 16.006 16.006 0 0 1 126.81 5.078 Q 129.113 5.498 131.85 6.55 A 1.478 1.478 0 0 1 132.583 7.26 Q 133.45 8.798 133.45 13.4 Q 133.45 16.201 133.064 16.201 A 0.11 0.11 0 0 1 133.05 16.2 A 5.774 5.774 0 0 1 131.977 16.004 Q 131.15 15.775 130.2 15.3 A 13.046 13.046 0 0 0 129.099 14.795 Q 127.864 14.3 126.95 14.3 A 3.133 3.133 0 0 0 126.243 14.377 A 2.682 2.682 0 0 0 125.85 14.5 Q 123.911 15.296 123.9 17.08 A 3.309 3.309 0 0 0 123.9 17.1 A 4.152 4.152 0 0 0 123.942 17.667 Q 124.013 18.175 124.2 18.8 Q 124.98 21.386 127.76 23.257 A 13.328 13.328 0 0 0 127.9 23.35 Z M 229.624 25.552 A 13.212 13.212 0 0 0 229.625 25.55 Q 230.2 23.75 230.15 22.4 Q 230.05 21.05 229.75 19.85 A 12.27 12.27 0 0 0 228.984 17.692 Q 228.309 16.26 227.3 15.25 Q 227.12 14.891 227.102 14.572 A 1.254 1.254 0 0 1 227.1 14.5 Q 227.1 13.8 227.75 13.4 Q 229.55 12.4 229.85 8.95 Q 229.95 7.55 229.4 6.15 A 5.289 5.289 0 0 0 228.705 4.889 A 4.15 4.15 0 0 0 227.4 3.75 Q 225.7 2.85 220.25 2.65 A 22.46 22.46 0 0 0 219.325 2.628 Q 213.256 2.611 210.65 6.1 A 8.043 8.043 0 0 0 209.441 8.416 A 7.091 7.091 0 0 0 209.1 10.6 A 8.023 8.023 0 0 0 210.132 14.508 A 9.961 9.961 0 0 0 210.55 15.2 Q 210.75 15.5 210.6 16.1 A 2.364 2.364 0 0 1 210.492 16.415 Q 210.42 16.58 210.329 16.706 A 1.057 1.057 0 0 1 210.15 16.9 A 5.226 5.226 0 0 0 208.92 17.92 A 3.956 3.956 0 0 0 207.95 20.6 A 6.223 6.223 0 0 0 208.779 23.664 A 8.969 8.969 0 0 0 209.875 25.2 A 13.619 13.619 0 0 0 211.894 27.1 A 10.749 10.749 0 0 0 214.1 28.4 A 13.347 13.347 0 0 0 216.357 29.078 Q 218.431 29.519 221.15 29.55 A 34.592 34.592 0 0 0 221.717 29.556 Q 226.934 29.562 228.5 27.9 Q 229.05 27.351 229.624 25.552 Z M 44.45 29.55 Q 51.4 29.8 54.1 25.9 A 8.374 8.374 0 0 0 55.149 23.684 Q 55.85 21.478 55.85 18.25 A 74.908 74.908 0 0 0 55.741 14.044 Q 55.269 5.688 52.75 3.9 Q 51.25 2.9 49.2 2.9 Q 47.973 2.9 47.105 3.26 A 3.414 3.414 0 0 0 46.55 3.55 A 1.499 1.499 0 0 1 46.268 3.711 Q 45.709 3.95 45.15 3.55 A 4.406 4.406 0 0 0 43.247 2.772 A 5.708 5.708 0 0 0 42.5 2.7 Q 41.154 2.647 40.077 2.971 A 5.095 5.095 0 0 0 37.05 5.4 A 31.292 31.292 0 0 0 34.59 10.591 Q 33.423 13.837 33.272 16.936 A 18.851 18.851 0 0 0 33.25 17.85 Q 33.25 27.006 40.537 29.004 A 16.796 16.796 0 0 0 44.45 29.55 Z M 158 26.6 L 158.15 24.5 Q 157.1 23.75 155.6 23.75 A 6.375 6.375 0 0 0 154.518 23.849 Q 153.68 23.994 152.7 24.35 Q 152.6 25.15 152.25 26.35 A 2.026 2.026 0 0 1 151.455 26.99 Q 150.751 27.328 149.611 27.387 A 9.774 9.774 0 0 1 149.1 27.4 A 14.875 14.875 0 0 1 148.035 27.365 Q 146.402 27.247 145.817 26.734 A 1.052 1.052 0 0 1 145.65 26.55 A 3.138 3.138 0 0 1 145.547 26.093 Q 145.355 24.882 145.594 22.218 A 48.456 48.456 0 0 1 145.6 22.15 Q 146.05 16.9 147.85 12.95 Q 150.05 8.2 154.65 6 A 11.362 11.362 0 0 1 157.031 5.151 Q 159.278 4.6 162.35 4.6 A 31.025 31.025 0 0 1 163.496 4.62 Q 165.63 4.699 166.042 5.103 A 0.375 0.375 0 0 1 166.1 5.175 A 2.462 2.462 0 0 1 166.372 5.789 A 2.065 2.065 0 0 1 166.45 6.35 A 1.307 1.307 0 0 1 166.098 7.243 A 1.959 1.959 0 0 1 165.85 7.475 A 7.392 7.392 0 0 0 165.644 7.644 Q 165.334 7.908 165.238 8.065 A 0.315 0.315 0 0 0 165.2 8.15 Q 164.75 14 164.65 19.8 A 6.186 6.186 0 0 0 164.644 20.01 Q 164.634 20.878 164.821 22.505 A 60.763 60.763 0 0 0 164.95 23.55 A 156.975 156.975 0 0 1 165.069 24.47 Q 165.3 26.303 165.3 26.75 Q 165.3 27.112 165.218 27.228 A 0.165 0.165 0 0 1 165.2 27.25 A 0.657 0.657 0 0 1 164.967 27.36 Q 164.332 27.55 162.3 27.55 A 18.081 18.081 0 0 1 160.966 27.505 Q 158.864 27.349 158.061 26.656 A 1.731 1.731 0 0 1 158 26.6 Z M 79.9 26.7 A 8.609 8.609 0 0 0 80.448 23.806 A 9.79 9.79 0 0 0 80.45 23.6 Q 80.45 20.1 78.3 17.85 A 0.966 0.966 0 0 0 77.988 17.629 Q 77.478 17.386 76.4 17.35 Q 75.309 17.266 74.922 16.76 A 0.981 0.981 0 0 1 74.8 16.55 Q 74.652 16.291 74.613 15.895 A 3.056 3.056 0 0 1 74.6 15.6 A 6.407 6.407 0 0 1 74.753 14.263 Q 74.886 13.637 75.138 12.944 A 14.623 14.623 0 0 1 75.6 11.825 A 11.093 11.093 0 0 0 76.596 7.418 A 12.831 12.831 0 0 0 76.6 7.1 Q 76.6 6.1 76.4 5.25 A 2.213 2.213 0 0 0 75.579 3.986 Q 74.871 3.416 73.59 3.073 A 10.174 10.174 0 0 0 73.3 3 Q 71.5 2.55 69.6 2.55 Q 66.17 2.55 65.019 4.205 A 2.973 2.973 0 0 0 64.7 4.8 Q 63.573 7.574 63.573 10.76 A 18.591 18.591 0 0 0 63.6 11.75 A 5.707 5.707 0 0 1 63.612 12.014 Q 63.65 13.338 63.65 20.25 Q 63.65 25.55 64.475 27.1 A 3.132 3.132 0 0 0 65.573 28.255 Q 66.524 28.869 68.1 29.15 A 23.837 23.837 0 0 0 71.198 29.511 A 28.354 28.354 0 0 0 72.7 29.55 A 20.707 20.707 0 0 0 75.004 29.433 Q 77.405 29.163 78.673 28.272 A 3.193 3.193 0 0 0 79.9 26.7 Z M 104.4 26.7 A 8.609 8.609 0 0 0 104.948 23.806 A 9.79 9.79 0 0 0 104.95 23.6 Q 104.95 20.1 102.8 17.85 A 0.966 0.966 0 0 0 102.488 17.629 Q 101.978 17.386 100.9 17.35 Q 99.809 17.266 99.422 16.76 A 0.981 0.981 0 0 1 99.3 16.55 Q 99.152 16.291 99.113 15.895 A 3.056 3.056 0 0 1 99.1 15.6 A 6.407 6.407 0 0 1 99.253 14.263 Q 99.386 13.637 99.638 12.944 A 14.623 14.623 0 0 1 100.1 11.825 A 11.093 11.093 0 0 0 101.096 7.418 A 12.831 12.831 0 0 0 101.1 7.1 Q 101.1 6.1 100.9 5.25 A 2.213 2.213 0 0 0 100.079 3.986 Q 99.371 3.416 98.09 3.073 A 10.174 10.174 0 0 0 97.8 3 Q 96 2.55 94.1 2.55 Q 90.67 2.55 89.519 4.205 A 2.973 2.973 0 0 0 89.2 4.8 Q 88.073 7.574 88.073 10.76 A 18.591 18.591 0 0 0 88.1 11.75 A 5.707 5.707 0 0 1 88.112 12.014 Q 88.15 13.338 88.15 20.25 Q 88.15 25.55 88.975 27.1 A 3.132 3.132 0 0 0 90.073 28.255 Q 91.024 28.869 92.6 29.15 A 23.837 23.837 0 0 0 95.698 29.511 A 28.354 28.354 0 0 0 97.2 29.55 A 20.707 20.707 0 0 0 99.504 29.433 Q 101.905 29.163 103.173 28.272 A 3.193 3.193 0 0 0 104.4 26.7 Z M 75.95 18.9 A 1.287 1.287 0 0 0 75.735 18.919 Q 74.987 19.045 74.2 20.05 Q 72.9 21.6 72.4 21.6 A 0.22 0.22 0 0 1 72.312 21.583 Q 72.135 21.506 72.044 21.103 A 2.923 2.923 0 0 1 72 20.85 A 14.133 14.133 0 0 1 71.995 20.783 Q 71.81 18.004 72.65 14.2 A 2.251 2.251 0 0 1 72.657 14.11 Q 72.724 13.385 73.283 12.013 A 26.633 26.633 0 0 1 73.7 11.05 Q 74.388 9.538 74.602 8.427 A 4.91 4.91 0 0 0 74.7 7.5 A 8.086 8.086 0 0 0 74.69 7.092 Q 74.665 6.585 74.571 6.255 A 1.436 1.436 0 0 0 74.45 5.95 Q 74.05 5.25 72.825 4.95 A 8.623 8.623 0 0 0 72.089 4.806 Q 71.585 4.728 70.999 4.689 A 18.922 18.922 0 0 0 69.75 4.65 A 15.742 15.742 0 0 0 69.125 4.662 Q 66.909 4.75 66.6 5.5 Q 65.936 7.061 65.713 9.305 A 24.79 24.79 0 0 0 65.6 11.75 L 65.6 22.15 Q 65.4 24.8 66.35 26.35 A 1.412 1.412 0 0 0 66.929 26.827 Q 68.009 27.376 70.771 27.508 A 40.498 40.498 0 0 0 72.7 27.55 A 25.167 25.167 0 0 0 73.67 27.532 Q 76.203 27.435 77.279 26.799 A 1.552 1.552 0 0 0 78 26 A 7.211 7.211 0 0 0 78.048 25.863 A 6.358 6.358 0 0 0 78.4 23.8 A 7.234 7.234 0 0 0 77.915 21.24 A 9.991 9.991 0 0 0 76.95 19.35 Q 76.716 19.139 76.481 19.027 A 1.222 1.222 0 0 0 75.95 18.9 Z M 100.45 18.9 A 1.287 1.287 0 0 0 100.235 18.919 Q 99.487 19.045 98.7 20.05 Q 97.4 21.6 96.9 21.6 A 0.22 0.22 0 0 1 96.812 21.583 Q 96.635 21.506 96.544 21.103 A 2.923 2.923 0 0 1 96.5 20.85 A 14.133 14.133 0 0 1 96.495 20.783 Q 96.31 18.004 97.15 14.2 A 2.251 2.251 0 0 1 97.157 14.11 Q 97.224 13.385 97.783 12.013 A 26.633 26.633 0 0 1 98.2 11.05 Q 98.888 9.538 99.102 8.427 A 4.91 4.91 0 0 0 99.2 7.5 A 8.086 8.086 0 0 0 99.19 7.092 Q 99.165 6.585 99.071 6.255 A 1.436 1.436 0 0 0 98.95 5.95 Q 98.55 5.25 97.325 4.95 A 8.623 8.623 0 0 0 96.589 4.806 Q 96.085 4.728 95.499 4.689 A 18.922 18.922 0 0 0 94.25 4.65 A 15.742 15.742 0 0 0 93.625 4.662 Q 91.409 4.75 91.1 5.5 Q 90.436 7.061 90.213 9.305 A 24.79 24.79 0 0 0 90.1 11.75 L 90.1 22.15 Q 89.9 24.8 90.85 26.35 A 1.412 1.412 0 0 0 91.429 26.827 Q 92.509 27.376 95.271 27.508 A 40.498 40.498 0 0 0 97.2 27.55 A 25.167 25.167 0 0 0 98.17 27.532 Q 100.703 27.435 101.779 26.799 A 1.552 1.552 0 0 0 102.5 26 A 7.211 7.211 0 0 0 102.548 25.863 A 6.358 6.358 0 0 0 102.9 23.8 A 7.234 7.234 0 0 0 102.415 21.24 A 9.991 9.991 0 0 0 101.45 19.35 Q 101.216 19.139 100.981 19.027 A 1.222 1.222 0 0 0 100.45 18.9 Z M 158 21.35 L 157.9 11.5 A 1.244 1.244 0 0 0 157.882 11.281 Q 157.779 10.709 157.071 10.992 A 2.098 2.098 0 0 0 157.05 11 Q 153.493 12.431 152.845 16.068 A 9.865 9.865 0 0 0 152.7 17.8 A 20.438 20.438 0 0 0 152.731 18.979 Q 152.88 21.55 153.75 21.55 Q 156.19 21.905 157.646 21.473 A 4.081 4.081 0 0 0 158 21.35 Z M 17.966 16.62 A 4.529 4.529 0 0 0 17.3 16.15 Q 16.5 15.8 15.6 15.8 Q 14.5 15.8 13.6 16.2 A 2.706 2.706 0 0 0 13.524 16.236 Q 12.7 16.633 12.7 17.35 A 1.727 1.727 0 0 0 12.7 17.381 Q 12.72 18.465 14.1 19.525 Q 15.5 20.6 16.65 20.6 A 2.686 2.686 0 0 0 16.794 20.597 Q 17.983 20.533 18.492 19.396 A 3.896 3.896 0 0 0 18.75 18.55 A 2.002 2.002 0 0 0 18.782 18.198 Q 18.782 17.325 17.966 16.62 Z M 186.05 15.2 A 4.291 4.291 0 0 0 187.1 15.078 A 3.205 3.205 0 0 0 188.3 14.5 A 2.908 2.908 0 0 0 189.424 12.65 A 4.502 4.502 0 0 0 189.5 11.8 A 0.865 0.865 0 0 0 189.502 11.743 Q 189.502 11.111 188.569 10.55 A 5.029 5.029 0 0 0 188.3 10.4 Q 187.25 9.85 186.35 9.85 A 1.463 1.463 0 0 0 184.953 10.685 Q 184.6 11.365 184.6 12.6 A 6.964 6.964 0 0 0 184.651 13.484 Q 184.77 14.412 185.17 14.838 A 1.151 1.151 0 0 0 186.05 15.2 Z" vector-effect="non-scaling-stroke"/></g></svg>