<svg width="166pt" height="45pt" viewBox="-1 -1 168 47" xmlns="http://www.w3.org/2000/svg"><g id="fontsvg1671842149425" stroke-linecap="round" fill-rule="evenodd" stroke="#aaaa67" stroke-width="0.5mm" fill="#bdbcc3"><path d="M 107.001 17.395 L 106.551 16.395 A 2.283 2.283 0 0 0 105.738 15.632 Q 104.522 14.975 102.401 15.945 Q 100.3 16.893 98.198 18.996 A 23.64 23.64 0 0 0 97.301 19.945 Q 95.558 21.914 94.607 23.633 A 10.495 10.495 0 0 0 93.801 25.445 Q 93.02 27.79 92.917 28.739 A 2.404 2.404 0 0 0 92.901 28.995 A 4.632 4.632 0 0 0 92.895 29.238 Q 92.895 30.992 94.251 32.395 Q 96.173 33.631 98.095 33.631 A 5.989 5.989 0 0 0 98.451 33.62 A 10.51 10.51 0 0 0 100.657 33.262 A 8.635 8.635 0 0 0 102.201 32.67 Q 103.824 31.859 104.866 30.83 A 7.605 7.605 0 0 0 104.901 30.795 A 10.79 10.79 0 0 0 105.285 30.393 Q 105.951 29.654 105.951 29.295 L 106.251 28.695 A 4.607 4.607 0 0 0 106.489 28.132 A 4.239 4.239 0 0 0 106.501 28.095 A 2.638 2.638 0 0 1 106.483 28.095 Q 106.316 28.094 106.601 28.07 A 12.617 12.617 0 0 1 106.637 28.067 Q 106.892 28.047 106.751 28.07 Q 106.613 28.093 106.857 28.137 A 3.132 3.132 0 0 0 106.901 28.145 L 107.201 28.245 A 6.968 6.968 0 0 1 106.245 28.974 Q 104.3 30.19 102.451 29.145 A 11.721 11.721 0 0 1 101.356 28.391 A 9.847 9.847 0 0 1 100.851 27.97 Q 100.203 27.391 99.641 27.391 A 1.077 1.077 0 0 0 99.551 27.395 A 1.322 1.322 0 0 1 99.02 26.891 Q 98.692 26.318 98.959 25.342 A 4.929 4.929 0 0 1 99.051 25.045 A 2.935 2.935 0 0 1 99.467 24.281 Q 99.679 23.996 99.972 23.724 A 5.131 5.131 0 0 1 99.976 23.72 A 3.464 3.464 0 0 1 101.024 23.061 A 4.547 4.547 0 0 1 101.701 22.845 Q 106.701 20.695 110.951 21.845 A 4.79 4.79 0 0 1 112.165 22.337 A 3.474 3.474 0 0 1 113.576 23.87 A 6.635 6.635 0 0 1 114.191 26.239 Q 114.213 26.534 114.213 26.84 A 8.658 8.658 0 0 1 114.201 27.295 A 12.626 12.626 0 0 1 113.636 30.385 A 14.687 14.687 0 0 1 113.376 31.145 A 18.511 18.511 0 0 1 112.817 32.495 Q 112.522 33.128 112.21 33.649 A 8.71 8.71 0 0 1 111.801 34.27 A 18.379 18.379 0 0 1 111.103 35.169 Q 110.753 35.595 110.334 36.064 A 42.045 42.045 0 0 1 109.426 37.045 Q 107.901 38.645 105.601 40.145 A 20.988 20.988 0 0 1 94.009 43.651 A 21.847 21.847 0 0 1 93.501 43.645 A 17.528 17.528 0 0 1 89.425 43.142 Q 83.74 41.68 82.451 35.995 A 19.526 19.526 0 0 1 82.044 33.365 Q 81.947 32.276 81.947 31.091 A 29.754 29.754 0 0 1 81.951 30.595 Q 82.451 21.895 87.151 14.345 A 30.506 30.506 0 0 1 89.979 10.548 A 41.09 41.09 0 0 1 93.201 7.245 Q 95.601 5.095 98.601 3.945 A 24.663 24.663 0 0 1 99.893 3.464 Q 101.045 3.07 102.451 2.695 A 23.876 23.876 0 0 1 104.596 2.359 Q 107.551 2.04 109.885 2.633 A 9.662 9.662 0 0 1 113.651 4.495 A 6.755 6.755 0 0 1 115.528 6.979 A 9.724 9.724 0 0 1 116.176 8.995 A 9.574 9.574 0 0 1 116.379 10.984 Q 116.379 12.124 116.131 13.354 A 16.26 16.26 0 0 1 115.501 15.595 A 5.171 5.171 0 0 1 114.839 16.961 A 4.244 4.244 0 0 1 113.601 18.145 A 6.704 6.704 0 0 1 112.059 18.872 A 5.708 5.708 0 0 1 110.826 19.12 A 6.658 6.658 0 0 1 110.245 19.146 Q 109.162 19.146 108.251 18.77 A 3.017 3.017 0 0 1 107.714 18.488 Q 107.425 18.292 107.251 18.049 A 1.365 1.365 0 0 1 107.001 17.395 Z M 42.451 21.395 L 43.201 19.995 L 44.701 17.595 Q 45.001 16.645 45.751 16.37 Q 46.501 16.095 47.376 16.095 Q 48.251 16.095 49.151 16.12 A 3.075 3.075 0 0 0 49.237 16.121 A 2.763 2.763 0 0 0 50.801 15.645 Q 51.551 15.145 52.576 15.27 Q 53.601 15.395 54.426 15.945 A 4.115 4.115 0 0 1 55.223 16.63 A 3.47 3.47 0 0 1 55.676 17.27 Q 56.101 18.045 55.751 18.795 A 44.232 44.232 0 0 0 54.624 21.479 Q 52.838 26.089 50.251 34.711 A 435.062 435.062 0 0 0 50.001 35.545 A 81.323 81.323 0 0 1 49.378 37.481 Q 48.87 38.989 48.401 40.145 Q 47.151 41.695 45.251 42.245 A 10.063 10.063 0 0 1 43.69 42.571 Q 42.646 42.7 41.676 42.57 Q 40.033 42.349 39.039 41.454 A 3.819 3.819 0 0 1 39.001 41.42 Q 38.001 40.495 38.551 39.095 Q 37.151 40.245 35.651 41.195 A 8.043 8.043 0 0 1 33.708 42.076 A 10.843 10.843 0 0 1 32.026 42.445 Q 29.901 42.745 27.951 42.27 Q 26.001 41.795 24.626 40.445 A 4.817 4.817 0 0 1 23.288 37.945 A 6.729 6.729 0 0 1 23.151 36.845 A 18.363 18.363 0 0 1 23.138 36.148 Q 23.138 30.603 26.42 23.835 A 56.611 56.611 0 0 1 29.401 18.495 A 6.111 6.111 0 0 1 30.834 17.451 A 5.094 5.094 0 0 1 32.526 16.92 Q 33.771 16.758 34.808 17.025 A 4.711 4.711 0 0 1 35.576 17.295 Q 36.901 17.895 37.526 19.22 Q 38.151 20.545 37.351 22.245 Q 35.651 24.745 34.651 27.645 Q 33.651 30.545 32.801 33.495 A 20.293 20.293 0 0 0 37.908 28.83 A 27.463 27.463 0 0 0 40.501 24.845 A 73.68 73.68 0 0 1 42.321 21.613 A 80.486 80.486 0 0 1 42.451 21.395 Z M 15.201 21.195 L 19.601 20.745 Q 20.651 20.645 21.426 21.17 Q 22.201 21.695 22.526 22.445 A 2.726 2.726 0 0 1 22.712 23.05 Q 22.749 23.256 22.749 23.46 A 2.267 2.267 0 0 1 22.701 23.92 A 1.492 1.492 0 0 1 22.026 24.891 A 2.177 2.177 0 0 1 21.801 25.02 A 4.756 4.756 0 0 0 21.44 25.219 Q 21.092 25.433 20.915 25.646 A 0.997 0.997 0 0 0 20.826 25.77 Q 20.601 26.145 20.451 26.495 A 4.637 4.637 0 0 1 20.171 27.042 A 5.316 5.316 0 0 1 20.076 27.195 Q 19.886 27.491 19.319 27.752 A 4.719 4.719 0 0 1 19.101 27.845 A 6.784 6.784 0 0 1 18.117 28.201 Q 16.364 28.707 12.951 29.045 A 19.629 19.629 0 0 1 12.739 29.646 Q 12.616 29.979 12.466 30.355 A 39.409 39.409 0 0 1 12.276 30.82 A 479.114 479.114 0 0 0 11.513 32.671 A 531.272 531.272 0 0 0 11.401 32.945 A 226.435 226.435 0 0 0 10.953 34.108 Q 10.069 36.426 9.926 36.995 A 74.701 74.701 0 0 0 9.844 37.329 Q 9.726 37.807 9.651 38.145 A 22.313 22.313 0 0 1 9.507 38.758 Q 9.297 39.589 9.114 39.969 A 1.965 1.965 0 0 1 9.101 39.995 A 4.242 4.242 0 0 1 6.725 42.79 A 6.437 6.437 0 0 1 5.801 43.145 A 6.546 6.546 0 0 1 4.775 43.36 Q 4.432 43.403 4.101 43.403 A 4.777 4.777 0 0 1 1.501 42.645 A 3.632 3.632 0 0 1 0.678 41.975 Q -0.196 41 0.057 39.541 A 4.895 4.895 0 0 1 0.201 38.945 Q 0.851 36.145 2.701 29.995 A 33594.95 33594.95 0 0 0 3.558 27.148 Q 4.739 23.22 5.301 21.345 Q 6.731 16.28 7.293 14.018 A 41.224 41.224 0 0 0 7.501 13.145 A 152.286 152.286 0 0 1 8.052 11.404 Q 9.178 7.92 9.726 6.945 Q 10.401 5.745 10.901 5.27 A 4.454 4.454 0 0 1 11.253 4.972 Q 11.622 4.689 12.173 4.354 A 18.54 18.54 0 0 1 12.526 4.145 Q 13.651 3.495 14.951 3.145 Q 16.251 2.795 17.551 2.67 Q 18.851 2.545 20.201 2.47 A 14.114 14.114 0 0 0 21.603 2.317 Q 22.363 2.198 23.201 1.995 A 7.306 7.306 0 0 0 23.82 1.97 A 5.441 5.441 0 0 0 24.376 1.895 A 11.84 11.84 0 0 1 25.276 1.758 A 10.806 10.806 0 0 1 25.401 1.745 Q 26.551 1.645 27.676 1.995 A 3.346 3.346 0 0 1 28.61 2.444 A 2.827 2.827 0 0 1 29.376 3.245 A 3.675 3.675 0 0 1 29.946 5.082 A 4.465 4.465 0 0 1 29.951 5.295 A 6.336 6.336 0 0 1 29.801 6.636 A 8.434 8.434 0 0 1 29.476 7.745 A 10.564 10.564 0 0 1 28.256 10.095 A 11.787 11.787 0 0 1 28.151 10.245 Q 26.301 12.845 23.501 13.945 Q 21.551 14.545 20.701 14.545 Q 20.052 14.545 19.709 14.428 A 0.905 0.905 0 0 1 19.526 14.345 A 3.964 3.964 0 0 1 19.414 14.273 Q 19.242 14.159 19.178 14.084 A 0.205 0.205 0 0 1 19.151 14.045 A 0.034 0.034 0 0 0 19.139 14.03 Q 19.071 13.99 18.801 14.395 Q 18.351 15.045 18.151 15.845 A 7.258 7.258 0 0 1 18.035 16.261 Q 17.881 16.75 17.701 17.02 A 2.674 2.674 0 0 0 17.568 17.248 Q 17.368 17.625 17.087 18.338 A 26.476 26.476 0 0 0 17.026 18.495 Q 16.601 19.595 15.951 20.32 A 58.053 58.053 0 0 0 15.727 20.572 Q 15.342 21.006 15.23 21.155 A 0.882 0.882 0 0 0 15.201 21.195 Z M 155.99 43.641 A 12.942 12.942 0 0 0 159.401 41.645 Q 159.683 41.42 160.011 41.163 A 95.11 95.11 0 0 1 160.551 40.745 A 18.311 18.311 0 0 0 160.699 40.631 Q 163.072 38.78 163.072 37.483 A 1.352 1.352 0 0 0 163.051 37.245 Q 163.652 35.464 163.652 33.819 A 8.515 8.515 0 0 0 162.451 29.445 A 11.27 11.27 0 0 0 161.093 27.624 Q 160.316 26.763 159.278 25.891 A 28.489 28.489 0 0 0 157.101 24.245 A 2.45 2.45 0 0 0 157.216 24.193 Q 157.378 24.113 157.429 24.049 A 0.089 0.089 0 0 0 157.451 23.995 A 0.121 0.121 0 0 1 157.446 23.96 Q 157.446 23.55 160.297 23.074 A 53.51 53.51 0 0 1 161.451 22.895 A 9.271 9.271 0 0 0 162.495 22.564 Q 163.242 22.273 163.784 21.883 A 3.208 3.208 0 0 0 165.151 19.795 Q 165.236 19.234 165.139 18.657 A 4.35 4.35 0 0 0 164.876 17.745 A 5.837 5.837 0 0 0 164.629 17.212 A 4.765 4.765 0 0 0 163.726 15.995 Q 163.001 15.295 161.326 15.195 Q 160.332 15.136 159.196 15.226 A 21.533 21.533 0 0 0 157.576 15.42 Q 155.501 15.745 153.401 16.445 A 24.203 24.203 0 0 0 153.005 16.581 Q 151.824 16.997 151.01 17.431 A 6.852 6.852 0 0 0 150.251 17.895 Q 149.201 18.645 148.501 19.295 A 14.466 14.466 0 0 0 148.107 19.672 Q 145.963 21.802 146.101 23.595 Q 145.801 24.345 145.801 25.245 Q 145.801 26.145 146.051 26.995 A 8.757 8.757 0 0 0 146.17 27.405 Q 146.46 28.325 146.877 28.855 A 1.969 1.969 0 0 0 147.501 29.395 A 3.156 3.156 0 0 0 147.627 29.581 Q 148.423 30.673 150.451 31.595 Q 151.351 31.995 152.226 32.395 A 6.572 6.572 0 0 1 152.892 32.745 A 5.076 5.076 0 0 1 153.701 33.345 A 1.07 1.07 0 0 1 153.162 34.023 Q 151.594 35.009 145.585 34.918 A 78.371 78.371 0 0 1 144.551 34.895 Q 144.001 34.895 143.751 35.32 Q 143.501 35.745 143.301 36.22 A 4.699 4.699 0 0 1 143.193 36.458 A 3.997 3.997 0 0 1 142.826 37.07 A 0.772 0.772 0 0 1 142.386 37.365 Q 142.237 37.404 142.055 37.4 A 1.69 1.69 0 0 1 141.951 37.395 Q 141.051 37.195 140.426 37.595 Q 139.801 37.995 139.551 38.695 A 2.857 2.857 0 0 0 139.432 39.504 Q 139.432 40.395 140.008 41.285 A 5.735 5.735 0 0 0 140.651 42.095 A 6.939 6.939 0 0 0 142.516 43.546 A 9.527 9.527 0 0 0 144.351 44.295 A 15.025 15.025 0 0 0 145.609 44.611 Q 147.41 44.982 149.401 44.945 Q 152.101 44.895 154.776 44.07 A 15.529 15.529 0 0 0 155.99 43.641 Z M 62.683 39.482 A 14.286 14.286 0 0 0 63.026 38.495 Q 63.199 37.937 63.365 37.295 A 36.79 36.79 0 0 0 63.651 36.095 A 44.177 44.177 0 0 1 63.803 35.437 Q 64.069 34.323 64.451 32.945 A 259.227 259.227 0 0 1 68.371 19.947 A 202.314 202.314 0 0 1 74.001 4.895 Q 74.101 3.845 72.951 2.545 A 15.361 15.361 0 0 1 72.628 2.136 A 12.855 12.855 0 0 1 72.151 1.47 A 1.79 1.79 0 0 1 71.845 0.455 A 2.093 2.093 0 0 1 71.851 0.295 A 6.174 6.174 0 0 0 71.122 0.099 Q 70.634 0 70.178 0 A 3.779 3.779 0 0 0 67.551 1.045 A 6.441 6.441 0 0 0 67.359 1.216 A 5.618 5.618 0 0 0 66.401 2.37 A 20.574 20.574 0 0 1 66.127 2.801 Q 65.994 3.003 65.872 3.177 A 9.351 9.351 0 0 1 65.601 3.545 A 91.264 91.264 0 0 0 61.903 10.724 A 109.744 109.744 0 0 0 56.801 24.095 Q 55.301 28.795 54.351 32.72 A 216.992 216.992 0 0 1 53.772 35.058 Q 53.151 37.504 52.601 39.395 A 6.745 6.745 0 0 0 52.541 39.691 Q 52.392 40.529 52.54 41.059 A 1.134 1.134 0 0 0 53.201 41.845 A 2.778 2.778 0 0 0 53.367 41.921 A 3.05 3.05 0 0 0 54.076 42.12 A 0.974 0.974 0 0 1 54.087 42.122 Q 54.407 42.176 54.578 42.427 A 0.971 0.971 0 0 1 54.701 42.695 A 2.37 2.37 0 0 0 54.76 43.116 Q 55.085 44.483 57.101 44.045 A 7.26 7.26 0 0 0 58.159 43.687 A 9.904 9.904 0 0 0 59.201 43.17 A 13.355 13.355 0 0 0 60.106 42.609 A 10.269 10.269 0 0 0 61.101 41.845 A 5.858 5.858 0 0 0 61.685 41.26 A 4.465 4.465 0 0 0 62.301 40.345 A 10.48 10.48 0 0 0 62.683 39.482 Z M 77.383 39.482 A 14.286 14.286 0 0 0 77.726 38.495 Q 77.899 37.937 78.065 37.295 A 36.79 36.79 0 0 0 78.351 36.095 A 44.177 44.177 0 0 1 78.503 35.437 Q 78.769 34.323 79.151 32.945 A 259.227 259.227 0 0 1 83.071 19.947 A 202.314 202.314 0 0 1 88.701 4.895 Q 88.801 3.845 87.651 2.545 A 15.361 15.361 0 0 1 87.328 2.136 A 12.855 12.855 0 0 1 86.851 1.47 A 1.79 1.79 0 0 1 86.545 0.455 A 2.093 2.093 0 0 1 86.551 0.295 A 6.174 6.174 0 0 0 85.822 0.099 Q 85.334 0 84.878 0 A 3.779 3.779 0 0 0 82.251 1.045 A 6.441 6.441 0 0 0 82.059 1.216 A 5.618 5.618 0 0 0 81.101 2.37 A 20.574 20.574 0 0 1 80.827 2.801 Q 80.694 3.003 80.572 3.177 A 9.351 9.351 0 0 1 80.301 3.545 A 91.264 91.264 0 0 0 76.603 10.724 A 109.744 109.744 0 0 0 71.501 24.095 Q 70.001 28.795 69.051 32.72 A 216.992 216.992 0 0 1 68.472 35.058 Q 67.851 37.504 67.301 39.395 A 6.745 6.745 0 0 0 67.241 39.691 Q 67.092 40.529 67.24 41.059 A 1.134 1.134 0 0 0 67.901 41.845 A 2.778 2.778 0 0 0 68.067 41.921 A 3.05 3.05 0 0 0 68.776 42.12 A 0.974 0.974 0 0 1 68.787 42.122 Q 69.107 42.176 69.278 42.427 A 0.971 0.971 0 0 1 69.401 42.695 A 2.37 2.37 0 0 0 69.46 43.116 Q 69.785 44.483 71.801 44.045 A 7.26 7.26 0 0 0 72.859 43.687 A 9.904 9.904 0 0 0 73.901 43.17 A 13.355 13.355 0 0 0 74.806 42.609 A 10.269 10.269 0 0 0 75.801 41.845 A 5.858 5.858 0 0 0 76.385 41.26 A 4.465 4.465 0 0 0 77.001 40.345 A 10.48 10.48 0 0 0 77.383 39.482 Z M 137.451 18.995 L 137.651 19.045 A 0.3 0.3 0 0 1 137.685 19.047 Q 137.718 19.05 137.735 19.063 A 0.038 0.038 0 0 1 137.751 19.095 A 2.257 2.257 0 0 1 138.114 18.988 Q 139.135 18.781 139.849 19.77 A 3.25 3.25 0 0 1 139.901 19.845 A 3.913 3.913 0 0 1 140.221 20.464 Q 140.499 21.132 140.691 22.115 A 14.757 14.757 0 0 1 140.751 22.445 A 16.749 16.749 0 0 1 140.765 22.98 Q 140.787 25.3 140.251 29.095 A 991.888 991.888 0 0 0 139.857 32.076 Q 139.186 37.215 139.035 38.906 A 16.038 16.038 0 0 0 139.001 39.345 A 2.576 2.576 0 0 1 139.006 39.492 Q 139.006 41.123 136.851 41.745 Q 134.905 42.344 132.959 41.698 A 7.063 7.063 0 0 1 132.951 41.695 A 4.834 4.834 0 0 1 132.269 41.407 Q 131.025 40.755 131.229 39.65 A 1.969 1.969 0 0 1 131.251 39.545 A 5.84 5.84 0 0 1 131.001 39.972 Q 130.735 40.382 130.47 40.605 A 1.639 1.639 0 0 1 130.451 40.62 A 2.992 2.992 0 0 1 130.203 40.798 Q 129.778 41.075 128.956 41.481 A 28.562 28.562 0 0 1 128.876 41.52 A 7.51 7.51 0 0 1 128 41.876 Q 127.063 42.195 125.741 42.436 A 25.401 25.401 0 0 1 125.551 42.47 Q 123.401 42.845 121.251 42.67 A 11.228 11.228 0 0 1 118.472 42.098 A 10 10 0 0 1 117.326 41.62 A 4.616 4.616 0 0 1 115.701 40.327 A 4.606 4.606 0 0 1 114.951 38.895 Q 113.801 35.295 115.251 29.745 Q 116.251 26.095 118.851 23.295 Q 121.851 20.095 125.651 17.995 A 17.845 17.845 0 0 1 128.279 16.816 A 13.189 13.189 0 0 1 131.151 16.145 Q 132.051 16.045 132.726 16.195 Q 133.401 16.345 134.176 16.495 Q 134.951 16.645 135.651 16.945 A 4.866 4.866 0 0 1 136.396 17.327 Q 136.775 17.569 137.018 17.852 A 1.709 1.709 0 0 1 137.451 18.995 Z M 128.201 32.245 A 5.619 5.619 0 0 0 128.474 31.592 Q 128.646 31.102 128.776 30.495 A 20.919 20.919 0 0 1 129.045 29.395 A 28.26 28.26 0 0 1 129.401 28.195 Q 125.351 29.845 123.201 32.245 A 7.567 7.567 0 0 0 122.731 32.827 Q 121.293 34.815 123.114 35.727 A 4.08 4.08 0 0 0 123.501 35.895 A 6.222 6.222 0 0 0 124.098 36.021 Q 125.943 36.313 126.851 35.145 A 5.147 5.147 0 0 0 127.251 34.517 Q 127.425 34.197 127.581 33.821 A 8.895 8.895 0 0 0 127.651 33.645 A 17.086 17.086 0 0 1 128.203 32.384 A 20.036 20.036 0 0 1 128.501 31.795 A 5.826 5.826 0 0 1 128.333 32.06 A 4.623 4.623 0 0 1 128.201 32.245 Z" vector-effect="non-scaling-stroke"/></g></svg>