<svg width="363pt" height="45pt" viewBox="-1 -1 365 47" xmlns="http://www.w3.org/2000/svg"><g id="fontsvg1671843082265" stroke-linecap="round" fill-rule="evenodd" stroke="#aaaa67" stroke-width="0.5mm" fill="#bdbcc3"><path d="M 3.047 1.777 L 3.936 1.777 A 2.487 2.487 0 0 1 6.078 2.924 Q 6.468 3.483 6.729 4.316 A 8.634 8.634 0 0 1 6.972 6.016 A 9.948 9.948 0 0 1 6.983 6.475 L 6.983 13.584 L 7.109 14.219 L 7.617 14.219 A 612.846 612.846 0 0 0 10.548 10.916 Q 15.558 5.225 16.928 3.301 A 8.068 8.068 0 0 0 17.266 2.793 A 5.269 5.269 0 0 1 18.194 2.177 A 3.889 3.889 0 0 1 19.424 1.777 A 6.959 6.959 0 0 1 20.661 2.162 Q 21.311 2.44 21.744 2.832 A 2.567 2.567 0 0 1 22.598 4.824 L 22.598 4.951 A 3.676 3.676 0 0 1 22.112 6.729 Q 21.487 7.871 20.059 9.014 L 13.33 16.25 L 13.33 16.377 L 23.486 27.422 Q 24.324 28.917 24.372 29.623 A 1.225 1.225 0 0 1 24.375 29.707 L 24.375 30.215 A 3.406 3.406 0 0 1 23.901 31.634 Q 23.425 32.395 22.503 32.807 A 5.048 5.048 0 0 1 21.455 33.135 L 20.947 33.135 Q 19.386 33.135 16.746 29.704 A 35.436 35.436 0 0 1 15.996 28.691 L 7.49 19.17 L 7.363 19.17 A 0.23 0.23 0 0 0 7.232 19.215 Q 7.148 19.273 7.063 19.408 A 1.639 1.639 0 0 0 6.983 19.551 L 6.983 28.438 A 9.483 9.483 0 0 1 6.846 30.123 Q 6.318 33.034 3.736 33.131 A 4.807 4.807 0 0 1 3.555 33.135 L 3.428 33.135 A 3.489 3.489 0 0 1 1.81 32.784 Q 0 31.85 0 28.438 L 0 6.094 Q 0.381 1.904 2.539 1.904 Q 2.539 1.779 3.035 1.777 A 4.014 4.014 0 0 1 3.047 1.777 Z M 286.121 18.789 L 286.121 28.565 A 8.613 8.613 0 0 1 285.987 30.15 Q 285.51 32.689 283.328 33.135 Q 282.915 33.135 282.693 33.262 A 3.489 3.489 0 0 1 281.075 32.911 Q 279.265 31.977 279.265 28.565 L 279.265 21.836 Q 279.265 17.55 278.18 16.248 A 1.667 1.667 0 0 0 277.742 15.869 A 5.358 5.358 0 0 0 276.742 15.496 A 4.125 4.125 0 0 0 275.711 15.361 L 275.203 15.361 A 4.497 4.497 0 0 0 273.834 15.8 Q 272.536 16.486 272.242 18.051 A 5.373 5.373 0 0 0 272.156 19.043 A 0.061 0.061 0 0 0 272.11 19.09 Q 272.029 19.275 272.029 20.186 L 272.029 28.565 A 8.613 8.613 0 0 1 271.895 30.15 Q 271.418 32.689 269.236 33.135 Q 268.823 33.135 268.601 33.262 A 3.386 3.386 0 0 1 266.944 32.88 Q 265.173 31.905 265.173 28.438 L 265.173 14.346 A 9.111 9.111 0 0 1 265.319 12.639 Q 265.854 9.846 268.363 9.662 A 4.976 4.976 0 0 1 268.728 9.649 A 2.827 2.827 0 0 1 270.528 10.313 Q 271.196 10.846 271.775 11.807 L 272.029 11.807 Q 273.357 10.002 276.309 9.623 A 13.253 13.253 0 0 1 277.996 9.522 Q 283.36 9.522 285.295 13.995 A 10.819 10.819 0 0 1 285.74 15.234 Q 286.121 16.98 286.121 18.789 Z M 351.787 14.854 L 351.406 14.854 A 4.095 4.095 0 0 0 350.85 14.983 Q 350.243 15.175 350.017 15.525 A 0.85 0.85 0 0 0 349.883 15.996 Q 349.883 17.105 354.86 18.948 A 58.796 58.796 0 0 0 355.469 19.17 A 11.087 11.087 0 0 1 357.746 20.559 A 6.413 6.413 0 0 1 360.293 25.772 A 6.211 6.211 0 0 1 358.084 30.527 Q 357.147 31.376 355.812 32.09 A 16.682 16.682 0 0 1 354.707 32.627 A 14.093 14.093 0 0 1 353.24 32.974 Q 352.478 33.11 351.787 33.131 A 8.275 8.275 0 0 1 351.533 33.135 L 350.518 33.135 Q 346.881 33.135 344.775 31.581 A 6.447 6.447 0 0 1 342.647 28.818 L 342.647 28.057 A 6.984 6.984 0 0 1 342.918 26.907 Q 343.558 25.01 345.186 25.01 Q 345.78 25.01 349.41 26.39 A 177.151 177.151 0 0 1 350.772 26.914 A 40.057 40.057 0 0 0 351.001 26.957 Q 351.456 27.041 351.533 27.041 Q 353.311 26.851 353.311 25.772 L 353.311 25.264 A 0.493 0.493 0 0 0 353.092 24.977 Q 352.122 24.168 346.836 21.836 A 10.533 10.533 0 0 1 345.198 20.648 Q 344.345 19.881 343.871 19.026 A 4.611 4.611 0 0 1 343.281 16.758 L 343.281 15.869 A 5.984 5.984 0 0 1 345.903 10.824 Q 346.879 10.105 348.219 9.551 A 15.054 15.054 0 0 1 348.613 9.395 Q 349.876 8.902 351.557 8.887 A 11.868 11.868 0 0 1 351.66 8.887 A 14.57 14.57 0 0 1 354.493 9.141 Q 358.325 9.902 359.658 12.949 Q 359.658 13.362 359.785 13.584 A 5.202 5.202 0 0 1 359.491 14.757 Q 358.805 16.504 356.865 16.504 Q 356.453 16.504 351.787 14.854 Z M 72.459 9.141 L 73.093 9.141 A 8.886 8.886 0 0 1 80.673 13.101 Q 81.966 14.901 82.869 17.52 Q 83.25 19.265 83.25 21.074 Q 83.25 28.215 77.528 31.892 A 16.761 16.761 0 0 1 76.013 32.754 A 22.024 22.024 0 0 1 74.832 33.022 Q 73.607 33.262 72.713 33.262 A 7.528 7.528 0 0 1 70.693 33.005 A 5.51 5.51 0 0 1 68.015 31.357 L 67.761 31.357 A 0.44 0.44 0 0 0 67.659 31.382 Q 67.526 31.433 67.51 31.572 A 0.346 0.346 0 0 0 67.507 31.611 L 67.507 37.07 A 10.156 10.156 0 0 1 67.366 38.847 Q 66.812 41.95 64.079 42.02 A 4.968 4.968 0 0 1 63.953 42.022 A 3.219 3.219 0 0 1 62.339 41.64 Q 61.038 40.901 60.74 38.736 A 10.402 10.402 0 0 1 60.652 37.324 L 60.652 13.965 A 9.111 9.111 0 0 1 60.797 12.258 Q 61.333 9.465 63.842 9.281 A 4.976 4.976 0 0 1 64.207 9.268 A 2.827 2.827 0 0 1 66.006 9.932 Q 66.674 10.465 67.254 11.426 L 67.507 11.426 A 6.077 6.077 0 0 1 71.897 9.161 A 7.721 7.721 0 0 1 72.459 9.141 Z M 81.472 12.695 L 81.472 12.568 A 12.661 12.661 0 0 1 85.744 21.467 A 17.438 17.438 0 0 1 85.789 22.725 Q 85.789 31.135 78.045 35.166 A 25.091 25.091 0 0 1 76.637 35.501 Q 75.919 35.648 75.295 35.723 A 9.993 9.993 0 0 1 74.109 35.801 A 7.073 7.073 0 0 1 71.834 35.409 A 9.804 9.804 0 0 1 70.173 34.658 L 70.046 34.658 L 70.046 36.943 Q 70.046 42.668 68.009 43.921 A 2.309 2.309 0 0 1 67.761 44.053 A 5.884 5.884 0 0 1 67.331 44.196 Q 66.856 44.335 66.17 44.475 A 26.552 26.552 0 0 1 65.73 44.561 A 4.528 4.528 0 0 1 64.221 44.321 Q 63.045 43.908 62.302 42.783 L 62.302 42.529 A 8.121 8.121 0 0 0 62.908 42.679 Q 63.196 42.738 63.45 42.763 A 3.753 3.753 0 0 0 63.826 42.783 L 64.588 42.783 A 3.01 3.01 0 0 0 67.114 41.449 Q 67.647 40.725 68.015 39.609 A 8.634 8.634 0 0 0 68.259 37.91 A 9.948 9.948 0 0 0 68.269 37.451 L 68.269 33.135 L 68.396 32.881 A 6.411 6.411 0 0 0 70.685 33.835 A 9.091 9.091 0 0 0 72.586 34.024 L 73.093 34.024 Q 79.473 34.024 82.996 26.66 A 12.854 12.854 0 0 0 84.007 22.027 A 12.353 12.353 0 0 0 84.011 21.709 L 84.011 20.313 A 12.693 12.693 0 0 0 82.067 13.599 A 15.843 15.843 0 0 0 81.472 12.695 Z M 192.175 2.158 L 193.064 2.158 A 2.487 2.487 0 0 1 195.206 3.304 Q 195.597 3.864 195.857 4.697 A 8.634 8.634 0 0 1 196.1 6.397 A 9.948 9.948 0 0 1 196.111 6.856 L 196.111 26.279 A 0.23 0.23 0 0 0 196.156 26.41 Q 196.214 26.495 196.349 26.58 A 1.639 1.639 0 0 0 196.492 26.66 L 202.205 26.66 A 10.98 10.98 0 0 1 203.844 26.772 Q 205.964 27.094 206.672 28.343 A 2.972 2.972 0 0 1 207.029 29.834 A 3.219 3.219 0 0 1 206.647 31.448 Q 205.909 32.749 203.744 33.046 A 10.402 10.402 0 0 1 202.332 33.135 L 193.191 33.135 A 6.27 6.27 0 0 1 191.62 32.956 Q 189.599 32.431 189.217 30.37 A 5.737 5.737 0 0 1 189.129 29.326 L 189.129 6.475 Q 189.509 2.285 191.668 2.285 Q 191.668 2.16 192.164 2.158 A 4.014 4.014 0 0 1 192.175 2.158 Z M 215.567 2.158 L 216.455 2.158 A 2.487 2.487 0 0 1 218.598 3.304 Q 218.988 3.864 219.248 4.697 A 8.634 8.634 0 0 1 219.492 6.397 A 9.948 9.948 0 0 1 219.502 6.856 L 219.502 26.279 A 0.23 0.23 0 0 0 219.547 26.41 Q 219.605 26.495 219.74 26.58 A 1.639 1.639 0 0 0 219.883 26.66 L 225.596 26.66 A 10.98 10.98 0 0 1 227.235 26.772 Q 229.355 27.094 230.064 28.343 A 2.972 2.972 0 0 1 230.42 29.834 A 3.219 3.219 0 0 1 230.038 31.448 Q 229.3 32.749 227.135 33.046 A 10.402 10.402 0 0 1 225.723 33.135 L 216.582 33.135 A 6.27 6.27 0 0 1 215.012 32.956 Q 212.99 32.431 212.609 30.37 A 5.737 5.737 0 0 1 212.52 29.326 L 212.52 6.475 Q 212.9 2.285 215.059 2.285 Q 215.059 2.16 215.555 2.158 A 4.014 4.014 0 0 1 215.567 2.158 Z M 54.241 10.664 L 54.368 10.664 A 3.677 3.677 0 0 1 55.935 12.448 Q 56.526 13.776 56.526 15.869 L 56.526 29.834 A 9.831 9.831 0 0 1 56.345 31.804 Q 56.123 32.887 55.628 33.666 A 4.069 4.069 0 0 1 53.225 35.42 L 52.083 35.42 Q 49.991 35.42 48.972 33.75 A 4.377 4.377 0 0 1 48.909 33.643 L 48.782 33.643 Q 46.687 35.674 43.45 35.674 L 43.323 35.674 A 10.091 10.091 0 0 1 38.858 34.7 A 10.153 10.153 0 0 1 35.579 32.119 L 35.706 32.119 A 10.5 10.5 0 0 0 41.799 34.024 Q 44.878 34.024 47.131 31.992 A 5.338 5.338 0 0 0 48.232 33.04 A 3.978 3.978 0 0 0 50.559 33.77 Q 54.876 33.77 54.876 27.422 L 54.876 14.854 A 16.1 16.1 0 0 0 54.779 13.036 Q 54.675 12.123 54.46 11.344 A 8.411 8.411 0 0 0 54.241 10.664 Z M 150.027 10.664 L 150.154 10.664 A 3.677 3.677 0 0 1 151.721 12.448 Q 152.312 13.776 152.312 15.869 L 152.312 29.834 A 9.831 9.831 0 0 1 152.131 31.804 Q 151.909 32.887 151.414 33.666 A 4.069 4.069 0 0 1 149.011 35.42 L 147.869 35.42 Q 145.777 35.42 144.758 33.75 A 4.377 4.377 0 0 1 144.695 33.643 L 144.568 33.643 Q 142.473 35.674 139.236 35.674 L 139.109 35.674 A 10.091 10.091 0 0 1 134.644 34.7 A 10.153 10.153 0 0 1 131.365 32.119 L 131.492 32.119 A 10.5 10.5 0 0 0 137.586 34.024 Q 140.664 34.024 142.918 31.992 A 5.338 5.338 0 0 0 144.018 33.04 A 3.978 3.978 0 0 0 146.345 33.77 Q 150.662 33.77 150.662 27.422 L 150.662 14.854 A 16.1 16.1 0 0 0 150.565 13.036 Q 150.461 12.123 150.246 11.344 A 8.411 8.411 0 0 0 150.027 10.664 Z M 258.762 10.664 L 258.889 10.664 A 3.677 3.677 0 0 1 260.456 12.448 Q 261.047 13.776 261.047 15.869 L 261.047 29.834 A 9.831 9.831 0 0 1 260.866 31.804 Q 260.644 32.887 260.15 33.666 A 4.069 4.069 0 0 1 257.747 35.42 L 256.604 35.42 Q 254.512 35.42 253.494 33.75 A 4.377 4.377 0 0 1 253.43 33.643 L 253.303 33.643 Q 251.209 35.674 247.971 35.674 L 247.844 35.674 A 10.091 10.091 0 0 1 243.379 34.7 A 10.153 10.153 0 0 1 240.1 32.119 L 240.227 32.119 A 10.5 10.5 0 0 0 246.321 34.024 Q 249.4 34.024 251.653 31.992 A 5.338 5.338 0 0 0 252.753 33.04 A 3.978 3.978 0 0 0 255.081 33.77 Q 259.397 33.77 259.397 27.422 L 259.397 14.854 A 16.1 16.1 0 0 0 259.3 13.036 Q 259.196 12.123 258.981 11.344 A 8.411 8.411 0 0 0 258.762 10.664 Z M 336.235 10.664 L 336.362 10.664 A 3.677 3.677 0 0 1 337.929 12.448 Q 338.521 13.776 338.521 15.869 L 338.521 29.834 A 9.831 9.831 0 0 1 338.339 31.804 Q 338.117 32.887 337.623 33.666 A 4.069 4.069 0 0 1 335.22 35.42 L 334.077 35.42 Q 331.985 35.42 330.967 33.75 A 4.377 4.377 0 0 1 330.903 33.643 L 330.776 33.643 Q 328.682 35.674 325.444 35.674 L 325.317 35.674 A 10.091 10.091 0 0 1 320.852 34.7 A 10.153 10.153 0 0 1 317.573 32.119 L 317.7 32.119 A 10.5 10.5 0 0 0 323.794 34.024 Q 326.873 34.024 329.126 31.992 A 5.338 5.338 0 0 0 330.226 33.04 A 3.978 3.978 0 0 0 332.554 33.77 Q 336.87 33.77 336.87 27.422 L 336.87 14.854 A 16.1 16.1 0 0 0 336.773 13.036 Q 336.669 12.123 336.454 11.344 A 8.411 8.411 0 0 0 336.235 10.664 Z M 47.258 11.553 L 47.639 11.553 A 3.598 3.598 0 0 1 48.31 10.392 Q 48.987 9.628 50.095 9.449 A 4.501 4.501 0 0 1 50.813 9.395 Q 53.462 9.395 53.9 12.579 A 10.215 10.215 0 0 1 53.987 13.965 L 53.987 28.691 Q 53.987 32.535 51.168 32.956 A 4.985 4.985 0 0 1 50.432 33.008 Q 48.792 33.008 47.454 30.715 A 10.217 10.217 0 0 1 47.385 30.596 L 47.258 30.596 A 7.353 7.353 0 0 1 44.94 32.509 A 7.042 7.042 0 0 1 41.672 33.262 Q 35.782 33.262 32.415 26.57 A 22.17 22.17 0 0 1 32.151 26.025 A 21.902 21.902 0 0 1 31.58 23.391 A 16.481 16.481 0 0 1 31.389 20.947 A 12.765 12.765 0 0 1 32.353 15.883 Q 33.634 12.888 36.615 10.868 A 16.198 16.198 0 0 1 38.245 9.902 A 6.831 6.831 0 0 1 39.763 9.382 Q 40.504 9.216 41.369 9.164 A 13.575 13.575 0 0 1 42.18 9.141 A 6.617 6.617 0 0 1 44.821 9.653 A 6.308 6.308 0 0 1 47.258 11.553 Z M 143.045 11.553 L 143.425 11.553 A 3.598 3.598 0 0 1 144.096 10.392 Q 144.773 9.628 145.881 9.449 A 4.501 4.501 0 0 1 146.599 9.395 Q 149.249 9.395 149.686 12.579 A 10.215 10.215 0 0 1 149.773 13.965 L 149.773 28.691 Q 149.773 32.535 146.954 32.956 A 4.985 4.985 0 0 1 146.218 33.008 Q 144.578 33.008 143.24 30.715 A 10.217 10.217 0 0 1 143.171 30.596 L 143.045 30.596 A 7.353 7.353 0 0 1 140.726 32.509 A 7.042 7.042 0 0 1 137.459 33.262 Q 131.568 33.262 128.201 26.57 A 22.17 22.17 0 0 1 127.937 26.025 A 21.902 21.902 0 0 1 127.366 23.391 A 16.481 16.481 0 0 1 127.175 20.947 A 12.765 12.765 0 0 1 128.139 15.883 Q 129.42 12.888 132.401 10.868 A 16.198 16.198 0 0 1 134.031 9.902 A 6.831 6.831 0 0 1 135.55 9.382 Q 136.291 9.216 137.155 9.164 A 13.575 13.575 0 0 1 137.966 9.141 A 6.617 6.617 0 0 1 140.607 9.653 A 6.308 6.308 0 0 1 143.045 11.553 Z M 251.78 11.553 L 252.161 11.553 A 3.598 3.598 0 0 1 252.831 10.392 Q 253.509 9.628 254.616 9.449 A 4.501 4.501 0 0 1 255.335 9.395 Q 257.984 9.395 258.422 12.579 A 10.215 10.215 0 0 1 258.508 13.965 L 258.508 28.691 Q 258.508 32.535 255.689 32.956 A 4.985 4.985 0 0 1 254.954 33.008 Q 253.314 33.008 251.975 30.715 A 10.217 10.217 0 0 1 251.907 30.596 L 251.78 30.596 A 7.353 7.353 0 0 1 249.462 32.509 A 7.042 7.042 0 0 1 246.194 33.262 Q 240.303 33.262 236.937 26.57 A 22.17 22.17 0 0 1 236.672 26.025 A 21.902 21.902 0 0 1 236.101 23.391 A 16.481 16.481 0 0 1 235.911 20.947 A 12.765 12.765 0 0 1 236.875 15.883 Q 238.155 12.888 241.136 10.868 A 16.198 16.198 0 0 1 242.766 9.902 A 6.831 6.831 0 0 1 244.285 9.382 Q 245.026 9.216 245.89 9.164 A 13.575 13.575 0 0 1 246.702 9.141 A 6.617 6.617 0 0 1 249.342 9.653 A 6.308 6.308 0 0 1 251.78 11.553 Z M 329.253 11.553 L 329.634 11.553 A 3.598 3.598 0 0 1 330.304 10.392 Q 330.982 9.628 332.089 9.449 A 4.501 4.501 0 0 1 332.808 9.395 Q 335.457 9.395 335.895 12.579 A 10.215 10.215 0 0 1 335.982 13.965 L 335.982 28.691 Q 335.982 32.535 333.163 32.956 A 4.985 4.985 0 0 1 332.427 33.008 Q 330.787 33.008 329.448 30.715 A 10.217 10.217 0 0 1 329.38 30.596 L 329.253 30.596 A 7.353 7.353 0 0 1 326.935 32.509 A 7.042 7.042 0 0 1 323.667 33.262 Q 317.776 33.262 314.41 26.57 A 22.17 22.17 0 0 1 314.146 26.025 A 21.902 21.902 0 0 1 313.574 23.391 A 16.481 16.481 0 0 1 313.384 20.947 A 12.765 12.765 0 0 1 314.348 15.883 Q 315.628 12.888 318.609 10.868 A 16.198 16.198 0 0 1 320.239 9.902 A 6.831 6.831 0 0 1 321.758 9.382 Q 322.499 9.216 323.364 9.164 A 13.575 13.575 0 0 1 324.175 9.141 A 6.617 6.617 0 0 1 326.815 9.653 A 6.308 6.308 0 0 1 329.253 11.553 Z M 112.512 2.412 L 113.147 2.285 A 2.945 2.945 0 0 1 115.966 4.057 Q 116.622 5.377 116.693 7.679 A 18.594 18.594 0 0 1 116.702 8.252 L 116.702 10.156 A 9.8 9.8 0 0 1 118.315 10.278 Q 120.903 10.712 121.399 12.695 A 1.096 1.096 0 0 0 121.437 12.989 A 0.93 0.93 0 0 0 121.526 13.203 A 2.567 2.567 0 0 1 120.24 15.538 Q 119.735 15.848 119.031 16.04 A 8.076 8.076 0 0 1 117.971 16.25 A 9.934 9.934 0 0 0 117.606 16.256 Q 116.702 16.29 116.702 16.504 L 116.702 26.152 A 28.273 28.273 0 0 1 116.627 28.306 Q 116.265 33.008 114.163 33.008 A 0.073 0.073 0 0 1 114.122 33.062 Q 114 33.144 113.514 33.225 A 10.258 10.258 0 0 1 113.274 33.262 A 3.489 3.489 0 0 1 111.656 32.911 Q 109.846 31.977 109.846 28.565 L 109.846 17.647 L 109.973 16.377 A 11.427 11.427 0 0 1 108.497 16.131 Q 106.914 15.748 106.255 14.945 A 2.077 2.077 0 0 1 105.784 13.584 L 105.784 12.949 A 2.152 2.152 0 0 1 106.846 11.086 Q 107.828 10.431 109.719 10.156 L 109.846 9.522 L 109.846 6.602 A 7.109 7.109 0 0 1 109.992 5.101 Q 110.174 4.258 110.586 3.666 A 3.131 3.131 0 0 1 112.512 2.412 Z M 298.721 2.412 L 299.356 2.285 A 2.945 2.945 0 0 1 302.174 4.057 Q 302.831 5.377 302.902 7.679 A 18.594 18.594 0 0 1 302.91 8.252 L 302.91 10.156 A 9.8 9.8 0 0 1 304.524 10.278 Q 307.112 10.712 307.608 12.695 A 1.096 1.096 0 0 0 307.645 12.989 A 0.93 0.93 0 0 0 307.734 13.203 A 2.567 2.567 0 0 1 306.448 15.538 Q 305.943 15.848 305.24 16.04 A 8.076 8.076 0 0 1 304.18 16.25 A 9.934 9.934 0 0 0 303.814 16.256 Q 302.91 16.29 302.91 16.504 L 302.91 26.152 A 28.273 28.273 0 0 1 302.835 28.306 Q 302.474 33.008 300.371 33.008 A 0.073 0.073 0 0 1 300.33 33.062 Q 300.208 33.144 299.722 33.225 A 10.258 10.258 0 0 1 299.483 33.262 A 3.489 3.489 0 0 1 297.864 32.911 Q 296.055 31.977 296.055 28.565 L 296.055 17.647 L 296.182 16.377 A 11.427 11.427 0 0 1 294.705 16.131 Q 293.123 15.748 292.463 14.945 A 2.077 2.077 0 0 1 291.992 13.584 L 291.992 12.949 A 2.152 2.152 0 0 1 293.055 11.086 Q 294.037 10.431 295.928 10.156 L 296.055 9.522 L 296.055 6.602 A 7.109 7.109 0 0 1 296.2 5.101 Q 296.383 4.258 296.795 3.666 A 3.131 3.131 0 0 1 298.721 2.412 Z M 165.833 6.475 L 165.833 29.961 Q 165.833 32.413 164.945 33.858 A 4.096 4.096 0 0 1 162.532 35.674 L 161.008 35.674 Q 159.453 35.674 158.215 34.024 L 158.088 33.77 L 158.215 33.77 A 40.034 40.034 0 0 0 158.767 33.869 Q 159.67 34.024 159.993 34.024 A 4.148 4.148 0 0 0 161.795 33.654 Q 163.631 32.78 164.055 29.834 A 75.808 75.808 0 0 0 164.111 28.922 Q 164.18 27.655 164.182 26.722 A 25.911 25.911 0 0 0 164.182 26.66 L 164.182 6.602 Q 164.182 3.269 163.547 1.27 Q 165.579 2.539 165.579 4.57 A 0.125 0.125 0 0 1 165.677 4.661 Q 165.803 4.924 165.827 5.957 A 22.694 22.694 0 0 1 165.833 6.475 Z M 159.739 0 L 160.12 0 A 4.698 4.698 0 0 1 161.453 0.413 Q 163.167 1.27 163.167 3.555 A 0.061 0.061 0 0 1 163.213 3.602 Q 163.294 3.787 163.294 4.697 L 163.294 28.565 A 9.9 9.9 0 0 1 163.168 30.22 Q 162.667 33.158 160.171 33.258 A 4.454 4.454 0 0 1 159.993 33.262 Q 158.224 33.262 157.308 31.812 A 4.608 4.608 0 0 1 156.946 31.104 A 2.934 2.934 0 0 1 156.748 30.503 Q 156.512 29.49 156.456 27.417 A 51.645 51.645 0 0 1 156.438 26.025 L 156.438 7.109 A 29.754 29.754 0 0 1 156.509 4.955 Q 156.751 1.645 157.813 0.665 A 1.483 1.483 0 0 1 158.85 0.254 A 0.134 0.134 0 0 1 158.921 0.143 Q 159.102 0.023 159.739 0 Z M 123.938 14.473 L 123.938 15.361 Q 123.938 18.218 119.495 18.662 L 119.114 18.662 L 119.114 30.215 A 9.396 9.396 0 0 1 118.945 32.067 Q 118.459 34.478 116.575 35.42 A 8.121 8.121 0 0 1 115.969 35.57 Q 115.682 35.628 115.427 35.654 A 3.753 3.753 0 0 1 115.051 35.674 L 114.29 35.674 A 2.84 2.84 0 0 1 112.737 35.194 Q 112.307 34.919 111.895 34.485 A 6.642 6.642 0 0 1 111.497 34.024 L 111.497 33.77 A 40.034 40.034 0 0 0 112.048 33.869 Q 112.952 34.024 113.274 34.024 Q 116.918 34.024 117.392 29.797 A 12.218 12.218 0 0 0 117.463 28.438 L 117.463 17.266 A 0.075 0.075 0 0 1 117.509 17.219 Q 117.781 17.06 119.673 16.653 A 93.583 93.583 0 0 1 120.383 16.504 A 5.946 5.946 0 0 0 121.299 15.765 Q 121.774 15.289 122.021 14.767 A 2.734 2.734 0 0 0 122.288 13.584 L 122.288 12.949 Q 122.185 12.334 122.165 11.967 A 3.005 3.005 0 0 1 122.161 11.807 Q 123.337 12.521 123.735 13.457 A 2.57 2.57 0 0 1 123.938 14.473 Z M 310.147 14.473 L 310.147 15.361 Q 310.147 18.218 305.703 18.662 L 305.322 18.662 L 305.322 30.215 A 9.396 9.396 0 0 1 305.154 32.067 Q 304.668 34.478 302.783 35.42 A 8.121 8.121 0 0 1 302.177 35.57 Q 301.89 35.628 301.636 35.654 A 3.753 3.753 0 0 1 301.26 35.674 L 300.498 35.674 A 2.84 2.84 0 0 1 298.945 35.194 Q 298.515 34.919 298.103 34.485 A 6.642 6.642 0 0 1 297.705 34.024 L 297.705 33.77 A 40.034 40.034 0 0 0 298.257 33.869 Q 299.16 34.024 299.483 34.024 Q 303.127 34.024 303.601 29.797 A 12.218 12.218 0 0 0 303.672 28.438 L 303.672 17.266 A 0.075 0.075 0 0 1 303.718 17.219 Q 303.989 17.06 305.881 16.653 A 93.583 93.583 0 0 1 306.592 16.504 A 5.946 5.946 0 0 0 307.507 15.765 Q 307.982 15.289 308.229 14.767 A 2.734 2.734 0 0 0 308.496 13.584 L 308.496 12.949 Q 308.394 12.334 308.374 11.967 A 3.005 3.005 0 0 1 308.369 11.807 Q 309.545 12.521 309.943 13.457 A 2.57 2.57 0 0 1 310.147 14.473 Z M 96.961 10.918 L 97.088 10.918 A 4.072 4.072 0 0 1 98.723 12.927 Q 99.025 13.673 99.153 14.625 A 11.309 11.309 0 0 1 99.246 16.123 L 99.246 29.961 Q 99.246 32.413 98.358 33.858 A 4.096 4.096 0 0 1 95.945 35.674 L 94.421 35.674 Q 92.866 35.674 91.629 34.024 L 91.502 33.77 L 91.629 33.77 A 40.034 40.034 0 0 0 92.18 33.869 Q 93.084 34.024 93.406 34.024 A 4.148 4.148 0 0 0 95.208 33.654 Q 97.044 32.78 97.468 29.834 A 75.808 75.808 0 0 0 97.524 28.922 Q 97.593 27.655 97.595 26.722 A 25.911 25.911 0 0 0 97.595 26.66 L 97.595 16.504 A 37.145 37.145 0 0 0 97.556 14.727 Q 97.467 12.887 97.182 11.679 A 7.171 7.171 0 0 0 96.961 10.918 Z M 285.359 12.315 L 285.359 12.188 L 285.486 12.188 A 5.647 5.647 0 0 1 287.373 14.445 Q 288.66 17.047 288.66 21.836 L 288.66 28.184 Q 288.66 34.15 286.375 35.293 Q 285.631 35.541 285.049 35.627 A 3.952 3.952 0 0 1 284.47 35.674 L 284.089 35.674 A 3.99 3.99 0 0 1 282.56 35.391 Q 281.654 35.019 281.011 34.157 A 4.702 4.702 0 0 1 280.916 34.024 L 280.916 33.77 A 40.034 40.034 0 0 0 281.467 33.869 Q 282.371 34.024 282.693 34.024 Q 286.414 34.024 286.83 29.818 A 11.454 11.454 0 0 0 286.882 28.691 L 286.882 18.027 A 12.18 12.18 0 0 0 286.57 15.203 A 9.312 9.312 0 0 0 285.359 12.315 Z M 360.166 21.836 L 360.293 21.836 A 7.934 7.934 0 0 1 361.889 23.673 A 6.299 6.299 0 0 1 362.832 27.041 Q 362.832 33.04 355.469 35.42 Q 353.85 35.674 352.422 35.674 A 14.309 14.309 0 0 1 349.283 35.352 Q 346.13 34.642 344.297 32.373 L 344.551 32.373 Q 347.376 34.024 350.899 34.024 A 13.16 13.16 0 0 0 354.765 33.493 Q 358.819 32.25 360.628 28.092 A 13.147 13.147 0 0 0 360.801 27.676 A 17.093 17.093 0 0 0 360.932 26.988 Q 361.038 26.36 361.052 25.913 A 4.265 4.265 0 0 0 361.055 25.772 L 361.055 25.01 A 4.412 4.412 0 0 0 360.968 24.182 Q 360.804 23.328 360.33 22.209 A 17.478 17.478 0 0 0 360.166 21.836 Z M 93.152 9.649 L 93.533 9.649 A 2.954 2.954 0 0 1 95.164 10.079 Q 96.707 11.071 96.707 14.346 L 96.707 28.565 A 9.9 9.9 0 0 1 96.581 30.22 Q 96.08 33.158 93.584 33.258 A 4.454 4.454 0 0 1 93.406 33.262 Q 91.637 33.262 90.721 31.812 A 4.608 4.608 0 0 1 90.359 31.104 A 2.934 2.934 0 0 1 90.161 30.503 Q 89.925 29.49 89.869 27.417 A 51.645 51.645 0 0 1 89.851 26.025 L 89.851 16.758 A 29.754 29.754 0 0 1 89.922 14.604 Q 90.164 11.293 91.226 10.314 A 1.483 1.483 0 0 1 92.263 9.902 A 0.134 0.134 0 0 1 92.335 9.792 Q 92.515 9.671 93.152 9.649 Z M 277.996 17.774 L 277.996 17.9 L 276.853 17.9 A 2.092 2.092 0 0 0 275.654 18.231 Q 274.836 18.784 274.634 20.26 A 7.913 7.913 0 0 0 274.568 21.328 L 274.568 28.184 Q 274.568 34.15 272.283 35.293 Q 271.539 35.541 270.957 35.627 A 3.952 3.952 0 0 1 270.379 35.674 L 269.998 35.674 A 3.99 3.99 0 0 1 268.468 35.391 Q 267.562 35.019 266.919 34.157 A 4.702 4.702 0 0 1 266.824 34.024 L 266.824 33.77 A 40.034 40.034 0 0 0 267.375 33.869 Q 268.279 34.024 268.601 34.024 Q 272.322 34.024 272.738 29.818 A 11.454 11.454 0 0 0 272.791 28.691 L 272.791 21.455 A 31.079 31.079 0 0 1 272.847 20.065 Q 273.069 16.631 274.06 16.631 Q 274.15 16.331 275.542 16.145 A 14.974 14.974 0 0 1 275.711 16.123 A 6.247 6.247 0 0 1 276.537 16.302 Q 277.996 16.734 277.996 17.774 Z M 207.537 28.311 L 207.791 28.311 A 5.648 5.648 0 0 1 208.616 29.076 Q 209.048 29.574 209.254 30.106 A 2.744 2.744 0 0 1 209.441 31.104 L 209.441 31.992 A 2.996 2.996 0 0 1 207.725 34.758 Q 206.492 35.436 204.374 35.66 A 16.994 16.994 0 0 1 204.236 35.674 L 195.476 35.674 Q 191.668 35.674 190.525 33.77 L 190.525 33.516 L 190.652 33.516 A 8.526 8.526 0 0 0 191.677 33.783 Q 192.226 33.888 192.726 33.896 A 5.147 5.147 0 0 0 192.81 33.897 L 202.966 33.897 Q 207.791 33.897 207.791 29.707 Q 207.791 29.485 207.537 28.311 Z M 230.928 28.311 L 231.182 28.311 A 5.648 5.648 0 0 1 232.007 29.076 Q 232.439 29.574 232.645 30.106 A 2.744 2.744 0 0 1 232.832 31.104 L 232.832 31.992 A 2.996 2.996 0 0 1 231.116 34.758 Q 229.883 35.436 227.765 35.66 A 16.994 16.994 0 0 1 227.627 35.674 L 218.867 35.674 Q 215.059 35.674 213.916 33.77 L 213.916 33.516 L 214.043 33.516 A 8.526 8.526 0 0 0 215.068 33.783 Q 215.617 33.888 216.117 33.896 A 5.147 5.147 0 0 0 216.201 33.897 L 226.358 33.897 Q 231.182 33.897 231.182 29.707 Q 231.182 29.485 230.928 28.311 Z M 196.365 3.428 L 196.492 3.428 A 4.175 4.175 0 0 1 198.144 5.493 Q 198.444 6.253 198.566 7.217 A 11.286 11.286 0 0 1 198.65 8.633 L 198.65 25.645 A 0.366 0.366 0 0 1 198.637 25.745 Q 198.605 25.858 198.49 25.888 A 0.374 0.374 0 0 1 198.396 25.899 L 197.254 25.899 A 0.366 0.366 0 0 1 197.153 25.886 Q 197.04 25.854 197.01 25.739 A 0.374 0.374 0 0 1 197 25.645 L 197 9.014 A 37.145 37.145 0 0 0 196.96 7.236 Q 196.872 5.397 196.586 4.189 A 7.171 7.171 0 0 0 196.365 3.428 Z M 219.756 3.428 L 219.883 3.428 A 4.175 4.175 0 0 1 221.535 5.493 Q 221.835 6.253 221.958 7.217 A 11.286 11.286 0 0 1 222.041 8.633 L 222.041 25.645 A 0.366 0.366 0 0 1 222.029 25.745 Q 221.996 25.858 221.881 25.888 A 0.374 0.374 0 0 1 221.787 25.899 L 220.645 25.899 A 0.366 0.366 0 0 1 220.544 25.886 Q 220.431 25.854 220.402 25.739 A 0.374 0.374 0 0 1 220.391 25.645 L 220.391 9.014 A 37.145 37.145 0 0 0 220.351 7.236 Q 220.263 5.397 219.977 4.189 A 7.171 7.171 0 0 0 219.756 3.428 Z M 7.871 26.533 L 7.871 20.947 L 7.998 20.947 A 34.296 34.296 0 0 1 8.505 21.477 Q 9.323 22.353 9.522 22.725 L 9.522 29.707 Q 9.522 35.308 5.494 35.651 A 6.395 6.395 0 0 1 4.951 35.674 A 3.825 3.825 0 0 1 1.964 34.343 A 5.215 5.215 0 0 1 1.524 33.77 L 1.777 33.643 Q 2.226 33.827 3.07 33.968 A 15.423 15.423 0 0 0 3.428 34.024 Q 7.617 33.547 7.617 29.961 A 0.139 0.139 0 0 0 7.703 29.841 Q 7.87 29.323 7.871 26.57 A 90.987 90.987 0 0 0 7.871 26.533 Z M 23.486 5.078 L 23.106 3.174 A 4.836 4.836 0 0 1 24.298 4.226 A 3.9 3.9 0 0 1 25.137 6.729 A 3.367 3.367 0 0 1 24.805 8.088 Q 24.023 9.837 21.402 12.289 A 37.574 37.574 0 0 1 20.82 12.822 A 847.403 847.403 0 0 1 19.718 14.013 Q 16.51 17.467 16.065 17.852 A 0.212 0.212 0 0 1 15.996 17.9 L 15.869 17.9 A 8.722 8.722 0 0 1 15.329 17.45 Q 14.535 16.726 14.477 16.204 A 0.735 0.735 0 0 1 14.473 16.123 A 718.377 718.377 0 0 0 16.496 14.032 Q 22.533 7.767 23.056 6.854 A 0.305 0.305 0 0 0 23.106 6.729 A 79.913 79.913 0 0 0 23.195 6.383 Q 23.486 5.245 23.486 5.078 Z M 360.039 11.68 L 360.166 11.68 A 5.399 5.399 0 0 1 361.302 12.704 A 3.886 3.886 0 0 1 362.197 15.234 L 362.197 15.361 A 6.62 6.62 0 0 1 361.819 16.841 Q 360.946 19.043 358.516 19.043 A 89.778 89.778 0 0 1 356.203 18.365 Q 351.623 16.95 350.772 15.996 A 0.44 0.44 0 0 1 350.796 15.894 Q 350.847 15.76 350.986 15.744 A 0.346 0.346 0 0 1 351.025 15.742 L 351.66 15.742 L 356.484 17.266 L 357.373 17.266 A 2.713 2.713 0 0 0 359.765 15.944 Q 360.267 15.177 360.547 13.965 L 360.547 13.711 A 4.206 4.206 0 0 0 360.237 12.092 A 4.041 4.041 0 0 0 360.039 11.68 Z M 67.38 20.82 L 67.38 21.455 Q 67.642 23.821 68.488 25.162 A 3.567 3.567 0 0 0 71.697 26.914 A 4.168 4.168 0 0 0 73.975 26.312 Q 75.552 25.313 76.087 22.654 A 12.866 12.866 0 0 0 76.267 21.455 L 76.267 21.074 Q 76.045 16.663 72.839 15.615 A 7.262 7.262 0 0 0 72.031 15.506 A 6.09 6.09 0 0 0 71.57 15.488 A 6.013 6.013 0 0 0 69.592 16.202 Q 67.38 17.523 67.38 20.82 Z M 38.499 20.947 L 38.499 21.328 A 7.57 7.57 0 0 0 38.707 23.174 A 4.39 4.39 0 0 0 41.292 26.279 A 1.193 1.193 0 0 0 41.509 26.383 Q 41.925 26.54 42.815 26.66 A 3.648 3.648 0 0 0 46.126 24.845 Q 46.856 23.662 47.131 21.709 L 47.131 20.693 A 6.457 6.457 0 0 0 46.867 18.772 Q 46.127 16.397 43.323 15.742 L 42.307 15.742 A 5.246 5.246 0 0 0 40.383 16.545 Q 39.146 17.412 38.721 19.037 A 7.555 7.555 0 0 0 38.499 20.947 Z M 134.285 20.947 L 134.285 21.328 A 7.57 7.57 0 0 0 134.494 23.174 A 4.39 4.39 0 0 0 137.078 26.279 A 1.193 1.193 0 0 0 137.295 26.383 Q 137.711 26.54 138.601 26.66 A 3.648 3.648 0 0 0 141.912 24.845 Q 142.642 23.662 142.918 21.709 L 142.918 20.693 A 6.457 6.457 0 0 0 142.653 18.772 Q 141.913 16.397 139.109 15.742 L 138.093 15.742 A 5.246 5.246 0 0 0 136.169 16.545 Q 134.932 17.412 134.507 19.037 A 7.555 7.555 0 0 0 134.285 20.947 Z M 243.02 20.947 L 243.02 21.328 A 7.57 7.57 0 0 0 243.229 23.174 A 4.39 4.39 0 0 0 245.813 26.279 A 1.193 1.193 0 0 0 246.031 26.383 Q 246.447 26.54 247.337 26.66 A 3.648 3.648 0 0 0 250.647 24.845 Q 251.377 23.662 251.653 21.709 L 251.653 20.693 A 6.457 6.457 0 0 0 251.388 18.772 Q 250.649 16.397 247.844 15.742 L 246.829 15.742 A 5.246 5.246 0 0 0 244.904 16.545 Q 243.668 17.412 243.243 19.037 A 7.555 7.555 0 0 0 243.02 20.947 Z M 320.493 20.947 L 320.493 21.328 A 7.57 7.57 0 0 0 320.702 23.174 A 4.39 4.39 0 0 0 323.286 26.279 A 1.193 1.193 0 0 0 323.504 26.383 Q 323.92 26.54 324.81 26.66 A 3.648 3.648 0 0 0 328.121 24.845 Q 328.851 23.662 329.126 21.709 L 329.126 20.693 A 6.457 6.457 0 0 0 328.861 18.772 Q 328.122 16.397 325.317 15.742 L 324.302 15.742 A 5.246 5.246 0 0 0 322.377 16.545 Q 321.141 17.412 320.716 19.037 A 7.555 7.555 0 0 0 320.493 20.947 Z M 23.486 26.152 L 23.486 26.025 A 18.257 18.257 0 0 1 24.986 27.541 Q 26.914 29.755 26.914 31.611 L 26.914 31.865 Q 26.914 34.468 23.233 35.674 L 22.725 35.674 Q 20.789 35.674 19.297 33.77 L 19.297 33.643 L 19.424 33.643 L 21.074 34.024 A 8.323 8.323 0 0 0 22.758 33.548 Q 25.189 32.545 25.262 30.112 A 5.066 5.066 0 0 0 25.264 29.961 Q 25.264 28.247 23.486 26.152 Z M 97.468 1.524 L 97.595 1.524 A 6.689 6.689 0 0 1 98.779 2.689 A 4.416 4.416 0 0 1 99.754 5.459 L 99.754 5.713 A 4.374 4.374 0 0 1 99.076 8.151 Q 98.258 9.41 96.453 10.156 L 96.326 10.156 A 4.099 4.099 0 0 0 95.577 9.44 A 2.773 2.773 0 0 0 93.914 8.887 L 92.771 8.887 Q 92.454 8.887 91.629 9.141 A 20.308 20.308 0 0 1 91.48 8.96 Q 90.994 8.363 90.994 8.252 L 91.121 8.252 Q 92.263 8.633 92.644 8.633 L 94.041 8.633 A 3.374 3.374 0 0 0 96.704 7.344 Q 97.156 6.812 97.528 6.06 A 9.471 9.471 0 0 0 97.849 5.332 Q 97.969 5.153 98.088 4.073 A 25.688 25.688 0 0 0 98.103 3.936 Q 98.103 3.104 97.585 1.807 A 13.598 13.598 0 0 0 97.468 1.524 Z M 74.617 18.154 L 74.49 18.154 L 73.728 18.027 L 73.093 18.027 A 2.569 2.569 0 0 0 70.759 19.451 Q 70.149 20.506 69.92 22.344 L 69.92 23.232 A 5.951 5.951 0 0 0 70.16 24.877 A 7.381 7.381 0 0 0 70.427 25.645 L 70.3 25.645 A 4.128 4.128 0 0 1 68.4 23.114 Q 68.142 22.215 68.142 21.074 A 11.293 11.293 0 0 1 68.469 19.313 Q 68.711 18.44 69.089 17.815 A 3.015 3.015 0 0 1 71.824 16.25 Q 74.617 16.948 74.617 18.154 Z M 42.688 16.504 L 42.942 16.504 Q 44.529 16.504 45.608 18.154 L 45.608 18.408 L 44.465 18.154 A 2.878 2.878 0 0 0 41.818 19.63 Q 41.481 20.199 41.276 20.986 A 9.309 9.309 0 0 0 41.038 22.344 L 41.038 23.106 Q 41.264 24.83 41.289 25.295 A 1.853 1.853 0 0 1 41.292 25.391 A 4.247 4.247 0 0 1 39.372 22.468 A 6.814 6.814 0 0 1 39.26 21.201 A 11.492 11.492 0 0 1 39.564 19.494 Q 40.358 16.504 42.688 16.504 Z M 138.474 16.504 L 138.728 16.504 Q 140.315 16.504 141.394 18.154 L 141.394 18.408 L 140.252 18.154 A 2.878 2.878 0 0 0 137.605 19.63 Q 137.267 20.199 137.062 20.986 A 9.309 9.309 0 0 0 136.824 22.344 L 136.824 23.106 Q 137.05 24.83 137.075 25.295 A 1.853 1.853 0 0 1 137.078 25.391 A 4.247 4.247 0 0 1 135.158 22.468 A 6.814 6.814 0 0 1 135.046 21.201 A 11.492 11.492 0 0 1 135.35 19.494 Q 136.145 16.504 138.474 16.504 Z M 247.21 16.504 L 247.463 16.504 Q 249.05 16.504 250.129 18.154 L 250.129 18.408 L 248.987 18.154 A 2.878 2.878 0 0 0 246.34 19.63 Q 246.002 20.199 245.798 20.986 A 9.309 9.309 0 0 0 245.559 22.344 L 245.559 23.106 Q 245.785 24.83 245.81 25.295 A 1.853 1.853 0 0 1 245.813 25.391 A 4.247 4.247 0 0 1 243.893 22.468 A 6.814 6.814 0 0 1 243.782 21.201 A 11.492 11.492 0 0 1 244.086 19.494 Q 244.88 16.504 247.21 16.504 Z M 324.683 16.504 L 324.937 16.504 Q 326.524 16.504 327.603 18.154 L 327.603 18.408 L 326.46 18.154 A 2.878 2.878 0 0 0 323.813 19.63 Q 323.476 20.199 323.271 20.986 A 9.309 9.309 0 0 0 323.032 22.344 L 323.032 23.106 Q 323.258 24.83 323.283 25.295 A 1.853 1.853 0 0 1 323.286 25.391 A 4.247 4.247 0 0 1 321.367 22.468 A 6.814 6.814 0 0 1 321.255 21.201 A 11.492 11.492 0 0 1 321.559 19.494 Q 322.353 16.504 324.683 16.504 Z M 92.39 0.127 L 93.152 0 L 93.533 0 A 3.316 3.316 0 0 1 96.254 1.391 Q 96.669 1.924 97.002 2.66 A 9.068 9.068 0 0 1 97.214 3.174 L 97.214 4.443 Q 97.214 6.665 94.295 7.744 A 0.34 0.34 0 0 1 94.191 7.796 Q 94.009 7.857 93.601 7.869 A 7.075 7.075 0 0 1 93.406 7.871 L 93.279 7.871 Q 89.715 7.366 89.486 4.583 A 4.794 4.794 0 0 1 89.47 4.19 L 89.47 3.809 Q 89.47 1.309 92.23 0.19 A 7.887 7.887 0 0 1 92.39 0.127 Z M 7.236 3.047 L 7.363 3.047 A 4.175 4.175 0 0 1 9.015 5.113 Q 9.316 5.872 9.438 6.836 A 11.286 11.286 0 0 1 9.522 8.252 L 9.522 10.41 A 0.994 0.994 0 0 1 9.416 10.823 Q 9.12 11.46 7.998 12.441 L 7.871 12.441 L 7.871 8.633 A 37.145 37.145 0 0 0 7.832 6.856 Q 7.743 5.016 7.458 3.808 A 7.171 7.171 0 0 0 7.236 3.047 Z M 345.313 21.963 L 345.313 21.836 A 30.491 30.491 0 0 0 347.239 22.928 Q 348.255 23.459 349.455 24.012 A 72.453 72.453 0 0 0 352.041 25.137 L 352.549 25.645 A 0.23 0.23 0 0 1 352.504 25.776 Q 352.446 25.86 352.311 25.945 A 1.639 1.639 0 0 1 352.168 26.025 A 13.641 13.641 0 0 1 347.332 23.71 A 17.792 17.792 0 0 1 345.313 21.963 Z M 119.114 8.506 L 119.114 9.395 L 118.987 9.649 Q 117.501 9.525 117.464 9.159 A 0.187 0.187 0 0 1 117.463 9.141 L 117.463 7.109 A 9.469 9.469 0 0 0 117.324 5.538 Q 117.196 4.776 116.949 3.943 A 16.856 16.856 0 0 0 116.829 3.555 A 3.825 3.825 0 0 1 118.676 5.699 Q 118.95 6.421 119.052 7.337 A 10.528 10.528 0 0 1 119.114 8.506 Z M 305.322 8.506 L 305.322 9.395 L 305.195 9.649 Q 303.709 9.525 303.673 9.159 A 0.187 0.187 0 0 1 303.672 9.141 L 303.672 7.109 A 9.469 9.469 0 0 0 303.533 5.538 Q 303.404 4.776 303.157 3.943 A 16.856 16.856 0 0 0 303.037 3.555 A 3.825 3.825 0 0 1 304.885 5.699 Q 305.158 6.421 305.261 7.337 A 10.528 10.528 0 0 1 305.322 8.506 Z M 106.926 16.631 L 107.18 16.631 A 20.978 20.978 0 0 1 107.692 16.747 Q 108.717 16.994 108.912 17.181 A 0.123 0.123 0 0 1 108.958 17.266 L 108.958 18.027 A 0.366 0.366 0 0 1 108.945 18.128 Q 108.913 18.241 108.798 18.27 A 0.374 0.374 0 0 1 108.704 18.281 A 4.097 4.097 0 0 1 107.415 17.32 A 3.894 3.894 0 0 1 106.926 16.631 Z M 293.135 16.631 L 293.389 16.631 A 20.978 20.978 0 0 1 293.901 16.747 Q 294.926 16.994 295.12 17.181 A 0.123 0.123 0 0 1 295.166 17.266 L 295.166 18.027 A 0.366 0.366 0 0 1 295.154 18.128 Q 295.121 18.241 295.006 18.27 A 0.374 0.374 0 0 1 294.912 18.281 A 4.097 4.097 0 0 1 293.623 17.32 A 3.894 3.894 0 0 1 293.135 16.631 Z M 16.504 18.662 L 16.504 18.535 Q 16.675 18.535 17.257 19.254 A 14.851 14.851 0 0 1 17.393 19.424 L 17.393 19.551 Q 17.221 19.551 16.639 18.832 A 14.851 14.851 0 0 1 16.504 18.662 Z M 18.281 20.566 L 18.281 20.44 A 0.205 0.205 0 0 1 18.382 20.475 Q 18.596 20.605 19.043 21.201 L 19.043 21.328 A 0.205 0.205 0 0 1 18.943 21.292 Q 18.729 21.163 18.281 20.566 Z M 20.186 22.598 L 20.186 22.471 A 0.171 0.171 0 0 1 20.269 22.501 Q 20.435 22.601 20.767 23.035 A 9.191 9.191 0 0 1 20.82 23.106 L 20.82 23.232 A 0.171 0.171 0 0 1 20.737 23.203 Q 20.571 23.103 20.239 22.668 A 9.191 9.191 0 0 1 20.186 22.598 Z M 21.963 24.502 L 21.963 24.375 A 0.171 0.171 0 0 1 22.047 24.405 Q 22.212 24.505 22.545 24.94 A 9.191 9.191 0 0 1 22.598 25.01 L 22.598 25.137 A 0.171 0.171 0 0 1 22.514 25.107 Q 22.349 25.007 22.016 24.572 A 9.191 9.191 0 0 1 21.963 24.502 Z" vector-effect="non-scaling-stroke"/></g></svg>