<svg width="230pt" height="53pt" viewBox="-1 -1 232 55" xmlns="http://www.w3.org/2000/svg"><g id="fontsvg1671843389426" stroke-linecap="round" fill-rule="evenodd" stroke="#aaaa67" stroke-width="0.5mm" fill="#bdbcc3"><path d="M 156.153 45.605 L 149.683 45.605 L 149.683 2.271 L 156.153 2.271 L 156.153 25.635 L 162.403 8.984 L 168.97 8.984 L 161.914 27.002 L 169.385 45.605 L 162.793 45.605 L 156.153 28.198 L 156.153 45.605 Z M 22.754 37.305 L 22.754 8.984 L 29.248 8.984 L 29.248 36.304 A 14.638 14.638 0 0 0 29.292 37.483 Q 29.385 38.63 29.675 39.362 A 3.258 3.258 0 0 0 29.81 39.661 A 1.907 1.907 0 0 0 31.141 40.666 A 3.378 3.378 0 0 0 31.909 40.747 Q 34.36 40.747 34.778 37.724 A 10.058 10.058 0 0 0 34.864 36.353 L 34.888 8.984 L 41.333 8.984 L 41.333 45.605 L 34.864 45.605 L 34.864 41.797 Q 33.36 45.972 29.455 46.067 A 7.528 7.528 0 0 1 29.273 46.069 A 6.798 6.798 0 0 1 26.27 45.451 Q 23.398 44.054 22.872 39.504 A 19.202 19.202 0 0 1 22.754 37.305 Z M 0.049 33.521 L 0.049 29.688 L 6.25 29.688 L 6.25 34.009 A 33.446 33.446 0 0 0 6.288 35.67 Q 6.363 37.173 6.586 38.159 A 5.382 5.382 0 0 0 6.861 39.05 A 2.453 2.453 0 0 0 7.434 39.903 Q 7.903 40.343 8.61 40.46 A 3.335 3.335 0 0 0 9.155 40.503 A 3.644 3.644 0 0 0 9.97 40.419 Q 10.476 40.302 10.83 40.026 A 1.901 1.901 0 0 0 11.389 39.307 A 4.404 4.404 0 0 0 11.655 38.514 Q 11.867 37.644 11.92 36.339 A 22.854 22.854 0 0 0 11.939 35.4 Q 11.939 32.69 10.962 30.676 Q 10.16 29.021 8.582 27.242 A 24.667 24.667 0 0 0 7.862 26.465 L 4.688 23.193 A 21.526 21.526 0 0 1 2.501 20.53 A 17.321 17.321 0 0 1 1.233 18.384 A 11.697 11.697 0 0 1 0.174 14.966 A 15.273 15.273 0 0 1 0 12.622 Q 0 7.434 1.949 4.844 A 6.665 6.665 0 0 1 2.051 4.712 A 6.104 6.104 0 0 1 4.677 2.833 Q 5.723 2.423 7.04 2.25 A 15.903 15.903 0 0 1 9.107 2.124 Q 12.013 2.124 13.828 3.14 A 5.382 5.382 0 0 1 15.882 5.139 A 10.741 10.741 0 0 1 16.923 7.656 Q 17.606 10.066 17.649 13.477 A 36.744 36.744 0 0 1 17.652 13.94 L 17.652 16.602 L 11.621 16.602 L 11.621 13.525 Q 11.621 11.097 11.297 9.738 A 5.096 5.096 0 0 0 11.084 9.045 A 2.288 2.288 0 0 0 10.613 8.289 Q 10.175 7.835 9.487 7.726 A 2.954 2.954 0 0 0 9.021 7.69 A 3.57 3.57 0 0 0 8.191 7.781 A 2.168 2.168 0 0 0 6.824 8.716 Q 6.18 9.699 6.154 11.624 A 12.148 12.148 0 0 0 6.153 11.792 A 10.014 10.014 0 0 0 6.23 13.076 Q 6.382 14.253 6.836 15.063 Q 7.407 16.083 8.744 17.579 A 35.981 35.981 0 0 0 9.302 18.188 L 12.842 22.021 A 26.094 26.094 0 0 1 15.169 24.909 A 19.607 19.607 0 0 1 16.858 27.856 A 15.087 15.087 0 0 1 18.2 33.625 A 17.599 17.599 0 0 1 18.213 34.302 Q 18.213 40.332 16.187 43.213 Q 14.16 46.094 9.094 46.094 Q 5.852 46.094 3.869 44.778 A 6.104 6.104 0 0 1 2.039 42.883 A 11.185 11.185 0 0 1 0.846 40.129 Q 0.074 37.499 0.05 33.763 A 37.516 37.516 0 0 1 0.049 33.521 Z M 228.443 19.165 L 228.443 21.167 L 222.656 21.167 L 222.656 18.75 A 17.641 17.641 0 0 0 222.612 17.451 Q 222.52 16.208 222.236 15.401 A 3.899 3.899 0 0 0 222.095 15.051 A 2.314 2.314 0 0 0 221.646 14.388 Q 221.177 13.915 220.454 13.852 A 2.621 2.621 0 0 0 220.227 13.843 A 3.567 3.567 0 0 0 219.495 13.913 Q 219.055 14.005 218.725 14.219 A 1.854 1.854 0 0 0 218.299 14.6 A 2.164 2.164 0 0 0 217.951 15.229 Q 217.725 15.839 217.685 16.769 A 9.692 9.692 0 0 0 217.676 17.187 A 6.613 6.613 0 0 0 218.817 20.863 A 9.977 9.977 0 0 0 220.264 22.583 L 223.731 25.732 A 19.655 19.655 0 0 1 226.775 29.275 A 13.255 13.255 0 0 1 229.077 36.694 A 16.549 16.549 0 0 1 228.89 39.271 Q 228.675 40.63 228.214 41.718 A 7.066 7.066 0 0 1 226.953 43.726 A 6.572 6.572 0 0 1 224.14 45.519 Q 223.081 45.88 221.784 46.004 A 14.946 14.946 0 0 1 220.362 46.069 A 12.366 12.366 0 0 1 217.857 45.832 Q 216.388 45.528 215.279 44.834 A 6.296 6.296 0 0 1 213.77 43.518 A 7.627 7.627 0 0 1 212.496 41.228 Q 211.73 39.128 211.654 36.026 A 28.429 28.429 0 0 1 211.646 35.327 L 211.646 32.959 L 217.725 32.959 L 217.725 35.913 A 14.378 14.378 0 0 0 217.809 37.541 Q 217.997 39.18 218.606 39.994 A 1.908 1.908 0 0 0 220.215 40.796 A 3.156 3.156 0 0 0 220.933 40.72 Q 221.435 40.602 221.785 40.305 A 1.85 1.85 0 0 0 222.119 39.929 A 2.598 2.598 0 0 0 222.425 39.279 Q 222.643 38.614 222.691 37.601 A 12.803 12.803 0 0 0 222.705 36.987 Q 222.705 33.325 219.336 30.2 A 1.985 1.985 0 0 0 219.29 30.157 Q 219.088 29.969 218.111 29.096 A 834.399 834.399 0 0 0 217.761 28.784 A 314.079 314.079 0 0 1 217.251 28.328 Q 216.375 27.542 216.108 27.288 A 4.191 4.191 0 0 1 216.04 27.222 A 14.801 14.801 0 0 1 213.116 23.632 A 12.124 12.124 0 0 1 211.524 17.529 Q 211.524 8.545 220.166 8.545 Q 224.463 8.545 226.453 10.999 A 7.163 7.163 0 0 1 227.586 13.071 Q 228.443 15.416 228.443 19.165 Z M 71.607 33.423 L 71.607 19.775 Q 71.607 9.814 78.963 8.688 A 13.188 13.188 0 0 1 80.957 8.545 A 13.062 13.062 0 0 1 83.452 8.766 Q 86.462 9.353 87.854 11.499 Q 89.771 14.453 89.771 19.897 L 89.771 27.734 L 78.125 27.734 L 78.125 34.937 A 35.577 35.577 0 0 0 78.148 36.267 Q 78.229 38.408 78.589 39.375 A 2.181 2.181 0 0 0 78.784 39.783 A 2.119 2.119 0 0 0 80.309 40.787 A 2.946 2.946 0 0 0 80.762 40.82 A 4.419 4.419 0 0 0 81.329 40.787 Q 81.942 40.707 82.267 40.438 A 0.982 0.982 0 0 0 82.471 40.21 Q 83.13 39.136 83.228 38.013 Q 83.325 36.89 83.325 34.937 L 83.325 31.714 L 89.722 31.714 L 89.722 33.667 A 50.969 50.969 0 0 1 89.673 35.982 Q 89.527 39.191 88.941 40.82 A 13.563 13.563 0 0 1 88.435 42.047 Q 87.843 43.295 87.134 43.97 A 6.739 6.739 0 0 1 84.561 45.489 Q 83.531 45.836 82.276 45.967 A 15.385 15.385 0 0 1 80.689 46.045 Q 74.512 46.045 72.73 41.333 A 15.278 15.278 0 0 1 72.051 38.842 Q 71.804 37.548 71.695 36.022 A 36.312 36.312 0 0 1 71.607 33.423 Z M 172.022 33.423 L 172.022 19.775 Q 172.022 9.814 179.378 8.688 A 13.188 13.188 0 0 1 181.372 8.545 A 13.062 13.062 0 0 1 183.867 8.766 Q 186.877 9.353 188.269 11.499 Q 190.186 14.453 190.186 19.897 L 190.186 27.734 L 178.54 27.734 L 178.54 34.937 A 35.577 35.577 0 0 0 178.563 36.267 Q 178.644 38.408 179.004 39.375 A 2.181 2.181 0 0 0 179.199 39.783 A 2.119 2.119 0 0 0 180.724 40.787 A 2.946 2.946 0 0 0 181.177 40.82 A 4.419 4.419 0 0 0 181.744 40.787 Q 182.357 40.707 182.682 40.438 A 0.982 0.982 0 0 0 182.886 40.21 Q 183.545 39.136 183.643 38.013 Q 183.74 36.89 183.74 34.937 L 183.74 31.714 L 190.137 31.714 L 190.137 33.667 A 50.969 50.969 0 0 1 190.088 35.982 Q 189.942 39.191 189.356 40.82 A 13.563 13.563 0 0 1 188.85 42.047 Q 188.258 43.295 187.549 43.97 A 6.739 6.739 0 0 1 184.976 45.489 Q 183.946 45.836 182.691 45.967 A 15.385 15.385 0 0 1 181.104 46.045 Q 174.927 46.045 173.145 41.333 A 15.278 15.278 0 0 1 172.466 38.842 Q 172.22 37.548 172.11 36.022 A 36.312 36.312 0 0 1 172.022 33.423 Z M 54.248 52.563 L 47.779 52.563 L 47.779 8.984 L 54.248 8.984 L 54.248 12.28 A 5.544 5.544 0 0 1 56.421 9.583 A 6.058 6.058 0 0 1 58.139 8.803 A 5.335 5.335 0 0 1 59.534 8.618 A 7.62 7.62 0 0 1 60.967 8.747 A 5.738 5.738 0 0 1 62.378 9.204 A 5.538 5.538 0 0 1 65.088 12.084 A 7.886 7.886 0 0 1 65.442 13.074 A 18.18 18.18 0 0 1 65.941 15.453 Q 66.236 17.476 66.236 20.02 L 66.236 33.374 Q 66.236 38.264 65.519 40.899 A 8.101 8.101 0 0 1 64.99 42.346 Q 63.924 44.51 62.231 45.358 A 4.937 4.937 0 0 1 61.646 45.605 A 7.44 7.44 0 0 1 59.852 46.001 A 9.174 9.174 0 0 1 58.948 46.045 Q 57.471 46.045 56.238 45.288 Q 55.005 44.531 54.248 43.384 L 54.248 52.563 Z M 130.713 12.354 L 130.713 13.672 A 19.558 19.558 0 0 1 130.52 16.539 Q 129.861 20.965 126.953 22.192 A 5.669 5.669 0 0 1 130.281 25.251 Q 131.395 27.517 131.526 31.296 A 29.818 29.818 0 0 1 131.543 32.324 L 131.543 33.423 Q 131.501 39.067 129.814 41.961 A 7.266 7.266 0 0 1 129.285 42.749 A 6.843 6.843 0 0 1 125.944 45.049 Q 124.28 45.605 122.071 45.605 L 112.573 45.605 L 112.573 2.637 L 121.875 2.637 A 16.362 16.362 0 0 1 124.232 2.794 Q 127.133 3.218 128.604 4.78 A 5.037 5.037 0 0 1 128.687 4.871 A 6.471 6.471 0 0 1 129.87 6.866 Q 130.697 8.991 130.713 12.354 Z M 108.374 12.646 L 108.35 14.014 A 11.506 11.506 0 0 0 104.517 14.673 A 6.572 6.572 0 0 0 103.515 15.114 Q 102.463 15.694 102.051 16.553 L 102.051 45.605 L 95.532 45.605 L 95.532 8.984 L 102.051 8.984 L 102.051 13.062 A 6.993 6.993 0 0 1 102.858 11.259 A 5.738 5.738 0 0 1 104.285 9.729 A 5.911 5.911 0 0 1 106.717 8.686 A 8.213 8.213 0 0 1 108.277 8.545 Q 108.374 8.545 108.374 12.646 Z M 208.789 12.646 L 208.765 14.014 A 11.506 11.506 0 0 0 204.932 14.673 A 6.572 6.572 0 0 0 203.93 15.114 Q 202.878 15.694 202.466 16.553 L 202.466 45.605 L 195.947 45.605 L 195.947 8.984 L 202.466 8.984 L 202.466 13.062 A 6.993 6.993 0 0 1 203.273 11.259 A 5.738 5.738 0 0 1 204.7 9.729 A 5.911 5.911 0 0 1 207.132 8.686 A 8.213 8.213 0 0 1 208.692 8.545 Q 208.789 8.545 208.789 12.646 Z M 143.213 45.605 L 136.743 45.605 L 136.743 8.984 L 143.213 8.984 L 143.213 45.605 Z M 59.717 34.619 L 59.717 19.434 Q 59.717 15.039 58.521 14.16 A 1.973 1.973 0 0 0 57.785 13.835 Q 57.512 13.774 57.196 13.77 A 3.479 3.479 0 0 0 57.154 13.77 A 2.789 2.789 0 0 0 56.197 13.926 Q 55.478 14.186 55.027 14.883 A 3.06 3.06 0 0 0 54.968 14.978 Q 54.42 15.898 54.289 17.987 A 22.86 22.86 0 0 0 54.248 19.409 L 54.248 34.888 A 25.858 25.858 0 0 0 54.285 36.312 Q 54.395 38.297 54.834 39.368 A 2.453 2.453 0 0 0 55.344 40.166 Q 55.816 40.648 56.553 40.761 A 3.148 3.148 0 0 0 57.031 40.796 A 2.673 2.673 0 0 0 57.894 40.666 Q 58.802 40.357 59.18 39.319 A 6.538 6.538 0 0 0 59.44 38.35 Q 59.647 37.295 59.699 35.737 A 33.209 33.209 0 0 0 59.717 34.619 Z M 119.116 24.927 L 119.116 40.527 L 121.436 40.527 A 4.413 4.413 0 0 0 122.467 40.415 A 2.572 2.572 0 0 0 124.17 39.185 Q 124.771 38.151 124.91 35.861 A 24.698 24.698 0 0 0 124.951 34.375 L 124.951 30.908 A 26.834 26.834 0 0 0 124.912 29.392 Q 124.829 27.942 124.576 27.009 A 4.505 4.505 0 0 0 124.317 26.282 A 2.213 2.213 0 0 0 122.729 25.017 A 3.776 3.776 0 0 0 121.875 24.927 L 119.116 24.927 Z M 119.116 7.764 L 119.116 20.02 L 121.533 20.02 A 4.081 4.081 0 0 0 122.303 19.952 Q 123.349 19.751 123.743 18.945 Q 124.268 17.871 124.268 14.526 L 124.268 11.938 Q 124.25 10.145 123.903 9.206 A 2.216 2.216 0 0 0 123.584 8.606 Q 122.925 7.764 121.314 7.764 L 119.116 7.764 Z M 78.101 19.434 L 78.101 23.95 L 83.325 23.95 L 83.325 19.263 Q 83.325 16.929 83.038 15.621 A 5.241 5.241 0 0 0 82.849 14.954 Q 82.456 13.874 81.388 13.687 A 2.772 2.772 0 0 0 80.908 13.647 L 80.884 13.647 A 2.267 2.267 0 0 0 78.755 14.901 Q 78.234 15.854 78.15 17.529 Q 78.101 18.262 78.101 19.434 Z M 178.516 19.434 L 178.516 23.95 L 183.74 23.95 L 183.74 19.263 Q 183.74 16.929 183.453 15.621 A 5.241 5.241 0 0 0 183.264 14.954 Q 182.871 13.874 181.803 13.687 A 2.772 2.772 0 0 0 181.323 13.647 L 181.299 13.647 A 2.267 2.267 0 0 0 179.17 14.901 Q 178.649 15.854 178.565 17.529 Q 178.516 18.262 178.516 19.434 Z M 143.189 5.615 L 136.67 5.615 L 136.67 0 L 143.189 0 L 143.189 5.615 Z" vector-effect="non-scaling-stroke"/></g></svg>